<svg width="49" height="28" viewBox="0 0 49 28" fill="none" xmlns="http://www.w3.org/2000/svg">
<path d="M1.67188 1.29688C2.48438 0.484375 3.45312 0.078125 4.57812 0.078125C5.70312 0.078125 6.67188 0.484375 7.48438 1.29688C8.29688 2.10938 8.70312 3.07812 8.70312 4.20312C8.70312 5.32812 8.29688 6.28125 7.48438 7.0625C6.67188 7.875 5.70312 8.28125 4.57812 8.28125C3.45312 8.28125 2.48438 7.875 1.67188 7.0625C0.890625 6.28125 0.5 5.32812 0.5 4.20312C0.5 3.07812 0.890625 2.10938 1.67188 1.29688ZM41.9375 1.29688C42.75 0.484375 43.7188 0.078125 44.8438 0.078125C45.9688 0.078125 46.9219 0.484375 47.7031 1.29688C48.5156 2.10938 48.9219 3.07812 48.9219 4.20312C48.9219 5.32812 48.5156 6.28125 47.7031 7.0625C46.9219 7.875 45.9688 8.28125 44.8438 8.28125C43.7188 8.28125 42.75 7.875 41.9375 7.0625C41.1562 6.28125 40.7656 5.32812 40.7656 4.20312C40.7656 3.07812 41.1562 2.10938 41.9375 1.29688ZM11.75 11.0938C12.5625 10.3125 13.5312 9.92188 14.6562 9.92188C15.7812 9.92188 16.7344 10.3125 17.5156 11.0938C18.3281 11.9062 18.7344 12.875 18.7344 14C18.7344 15.125 18.3281 16.0938 17.5156 16.9062C16.7344 17.7188 15.7812 18.125 14.6562 18.125C13.5312 18.125 12.5625 17.7188 11.75 16.9062C10.9688 16.0938 10.5781 15.125 10.5781 14C10.5781 12.875 10.9688 11.9062 11.75 11.0938ZM31.8594 11.0938C32.6719 10.3125 33.6406 9.92188 34.7656 9.92188C35.8906 9.92188 36.8594 10.3125 37.6719 11.0938C38.4844 11.9062 38.8906 12.875 38.8906 14C38.8906 15.125 38.4844 16.0938 37.6719 16.9062C36.8594 17.7188 35.8906 18.125 34.7656 18.125C33.6406 18.125 32.6719 17.7188 31.8594 16.9062C31.0781 16.0938 30.6875 15.125 30.6875 14C30.6875 12.875 31.0781 11.9062 31.8594 11.0938ZM21.8281 20.9375C22.6406 20.1562 23.6094 19.7656 24.7344 19.7656C25.8594 19.7656 26.8125 20.1562 27.5938 20.9375C28.4062 21.75 28.8125 22.7188 28.8125 23.8438C28.8125 24.9688 28.4062 25.9375 27.5938 26.75C26.8125 27.5625 25.8594 27.9688 24.7344 27.9688C23.6094 27.9688 22.6406 27.5625 21.8281 26.75C21.0156 25.9375 20.6094 24.9688 20.6094 23.8438C20.6094 22.7188 21.0156 21.75 21.8281 20.9375Z" fill="white"/>
</svg>
