<svg width="94" height="94" viewBox="0 0 94 94" fill="none" xmlns="http://www.w3.org/2000/svg">
<rect x="5" y="5" width="84" height="84" rx="19" fill="black" fill-opacity="0.15"/>
<rect x="2.5" y="2.5" width="89" height="89" rx="21.5" stroke="url(#paint0_linear_367_44)" stroke-opacity="0.5" stroke-width="5"/>
<g clip-path="url(#clip0_367_44)">
<path d="M21.3333 55.1667C21.3333 57.1033 22.8967 58.6667 24.8333 58.6667H45.8333C46.4867 58.6667 47 59.18 47 59.8333C47 60.4867 46.4867 61 45.8333 61H24.8333C21.6133 61 19 58.3867 19 55.1667C19 52.3433 21.0067 49.9867 23.6667 49.45V29.5C23.6667 23.7133 28.38 19 34.1667 19H59.8333C65.62 19 70.3333 23.7133 70.3333 29.5V34.1667C70.3333 34.82 69.82 35.3333 69.1667 35.3333C68.5133 35.3333 68 34.82 68 34.1667V29.5C68 24.9967 64.3367 21.3333 59.8333 21.3333H34.1667C29.6633 21.3333 26 24.9967 26 29.5V49.3333H38.8333C39.1367 49.3333 39.44 49.45 39.65 49.6833L41.6333 51.6667H45.81C46.4633 51.6667 46.9767 52.18 46.9767 52.8333C46.9767 53.4867 46.4633 54 45.81 54H41.1433C40.84 54 40.5367 53.8833 40.3267 53.65L38.3433 51.6667H24.8333C22.8967 51.6667 21.3333 53.23 21.3333 55.1667ZM75 48.1667V66.8333C75 71.3367 71.3367 75 66.8333 75H59.8333C55.33 75 51.6667 71.3367 51.6667 66.8333V48.1667C51.6667 43.6633 55.33 40 59.8333 40H66.8333C71.3367 40 75 43.6633 75 48.1667ZM72.6667 48.1667C72.6667 44.9467 70.0533 42.3333 66.8333 42.3333H59.8333C56.6133 42.3333 54 44.9467 54 48.1667V66.8333C54 70.0533 56.6133 72.6667 59.8333 72.6667H66.8333C70.0533 72.6667 72.6667 70.0533 72.6667 66.8333V48.1667Z" fill="url(#paint1_linear_367_44)"/>
</g>
<defs>
<linearGradient id="paint0_linear_367_44" x1="47" y1="5" x2="47" y2="89" gradientUnits="userSpaceOnUse">
<stop stop-color="#9D08FF"/>
<stop offset="1" stop-color="#5E0599"/>
</linearGradient>
<linearGradient id="paint1_linear_367_44" x1="47" y1="19" x2="47" y2="75" gradientUnits="userSpaceOnUse">
<stop stop-color="#8C2CCB"/>
<stop offset="1" stop-color="#5C0099"/>
</linearGradient>
<clipPath id="clip0_367_44">
<rect width="56" height="56" fill="white" transform="translate(19 19)"/>
</clipPath>
</defs>
</svg>
