<svg width="94" height="94" viewBox="0 0 94 94" fill="none" xmlns="http://www.w3.org/2000/svg">
<rect x="5" y="5" width="84" height="84" rx="19" fill="black" fill-opacity="0.15"/>
<rect x="2.5" y="2.5" width="89" height="89" rx="21.5" stroke="url(#paint0_linear_408_1351)" stroke-opacity="0.5" stroke-width="5"/>
<g clip-path="url(#clip0_408_1351)">
<path d="M40 44.6667H23.6667C21.093 44.6667 19 46.7597 19 49.3333V64.5C19 70.289 23.711 75 29.5 75H40C42.5737 75 44.6667 72.907 44.6667 70.3333V49.3333C44.6667 46.7597 42.5737 44.6667 40 44.6667ZM42.3333 70.3333C42.3333 71.6213 41.288 72.6667 40 72.6667H29.5C24.9967 72.6667 21.3333 69.0033 21.3333 64.5V49.3333C21.3333 48.0453 22.3787 47 23.6667 47H40C41.288 47 42.3333 48.0453 42.3333 49.3333V70.3333ZM40 19H29.5C23.711 19 19 23.711 19 29.5V35.3333C19 37.907 21.093 40 23.6667 40H40C42.5737 40 44.6667 37.907 44.6667 35.3333V23.6667C44.6667 21.093 42.5737 19 40 19ZM42.3333 35.3333C42.3333 36.6213 41.288 37.6667 40 37.6667H23.6667C22.3787 37.6667 21.3333 36.6213 21.3333 35.3333V29.5C21.3333 24.9967 24.9967 21.3333 29.5 21.3333H40C41.288 21.3333 42.3333 22.3787 42.3333 23.6667V35.3333ZM70.3333 54H54C51.4263 54 49.3333 56.093 49.3333 58.6667V70.3333C49.3333 72.907 51.4263 75 54 75H64.5C70.289 75 75 70.289 75 64.5V58.6667C75 56.093 72.907 54 70.3333 54ZM72.6667 64.5C72.6667 69.0033 69.0033 72.6667 64.5 72.6667H54C52.712 72.6667 51.6667 71.6213 51.6667 70.3333V58.6667C51.6667 57.3787 52.712 56.3333 54 56.3333H70.3333C71.6213 56.3333 72.6667 57.3787 72.6667 58.6667V64.5ZM64.5 19H54C51.4263 19 49.3333 21.093 49.3333 23.6667V44.6667C49.3333 47.2403 51.4263 49.3333 54 49.3333H70.3333C72.907 49.3333 75 47.2403 75 44.6667V29.5C75 23.711 70.289 19 64.5 19ZM72.6667 44.6667C72.6667 45.9547 71.6213 47 70.3333 47H54C52.712 47 51.6667 45.9547 51.6667 44.6667V23.6667C51.6667 22.3787 52.712 21.3333 54 21.3333H64.5C69.0033 21.3333 72.6667 24.9967 72.6667 29.5V44.6667Z" fill="url(#paint1_linear_408_1351)"/>
</g>
<defs>
<linearGradient id="paint0_linear_408_1351" x1="47" y1="5" x2="47" y2="89" gradientUnits="userSpaceOnUse">
<stop stop-color="#9D08FF"/>
<stop offset="1" stop-color="#5E0599"/>
</linearGradient>
<linearGradient id="paint1_linear_408_1351" x1="47" y1="19" x2="47" y2="75" gradientUnits="userSpaceOnUse">
<stop stop-color="#8C2CCB"/>
<stop offset="1" stop-color="#5C0099"/>
</linearGradient>
<clipPath id="clip0_408_1351">
<rect width="56" height="56" fill="white" transform="translate(19 19)"/>
</clipPath>
</defs>
</svg>
