<svg width="555" height="48" viewBox="0 0 555 48" fill="none" xmlns="http://www.w3.org/2000/svg">
<g clip-path="url(#clip0_551_8647)">
<g filter="url(#filter0_d_551_8647)">
<path d="M47.5192 2.14867C47.7971 1.34153 48.5567 0.799751 49.4104 0.799805L52.521 0.799999C53.9016 0.800085 54.8669 2.16578 54.4063 3.46726L39.1884 46.4671C38.9057 47.2659 38.1504 47.7998 37.303 47.7998H34.6042C33.2307 47.7998 32.266 46.4473 32.7131 45.1487L47.5192 2.14867Z" fill="#F52584"/>
<path d="M30.4934 12.3488C29.983 11.5485 28.9804 11.2171 28.0937 11.5556L4.15255 20.6954C4.03734 20.7394 3.92888 20.7926 3.82759 20.8538C3.63575 20.8879 3.44647 20.9408 3.26252 21.0126L2.05639 21.483C-0.543846 22.4972 -0.471517 26.2014 2.16633 27.1133L3.24414 27.4859L27.5781 36.8302C29.3681 37.5176 31.3346 36.3723 31.6201 34.4762L31.7626 33.5298C31.9728 32.1334 31.1807 30.7794 29.8604 30.2783L13.7524 24.1657L31.1017 17.8248C32.3024 17.386 32.7888 15.9489 32.1016 14.8711L30.4934 12.3488Z" fill="#F52584"/>
<path d="M59.0366 37.0522C58.1498 37.3907 57.1472 37.0593 56.6369 36.2589L55.0287 33.7367C54.3415 32.6588 54.8279 31.2218 56.0285 30.783L73.3774 24.4422L57.2689 18.3294C55.9486 17.8284 55.1565 16.4744 55.3667 15.078L55.5092 14.1315C55.7947 12.2355 57.7612 11.0902 59.5512 11.7776L83.8851 21.1219L84.963 21.4945C87.6008 22.4064 87.6731 26.1106 85.0729 27.1248L83.8668 27.5952C83.6833 27.6668 83.4944 27.7196 83.3031 27.7537C83.2017 27.815 83.0931 27.8683 82.9777 27.9123L59.0366 37.0522Z" fill="#F52584"/>
<path d="M108.67 38.9561C108.129 38.4144 107.858 37.7686 107.858 37.0186C107.858 36.2686 108.129 35.6331 108.67 35.1123C109.212 34.5706 109.858 34.2998 110.608 34.2998C111.358 34.2998 111.993 34.5706 112.514 35.1123C113.056 35.6331 113.327 36.2686 113.327 37.0186C113.327 37.7686 113.056 38.4144 112.514 38.9561C111.993 39.4769 111.358 39.7373 110.608 39.7373C109.858 39.7373 109.212 39.4769 108.67 38.9561ZM108.67 19.2686C108.129 18.7269 107.858 18.0811 107.858 17.3311C107.858 16.5811 108.129 15.9456 108.67 15.4248C109.212 14.8831 109.858 14.6123 110.608 14.6123C111.358 14.6123 111.993 14.8831 112.514 15.4248C113.056 15.9456 113.327 16.5811 113.327 17.3311C113.327 18.0811 113.056 18.7269 112.514 19.2686C111.993 19.8102 111.358 20.0811 110.608 20.0811C109.858 20.0811 109.212 19.8102 108.67 19.2686ZM108.67 12.7373C108.129 12.1956 107.858 11.5498 107.858 10.7998C107.858 10.0498 108.129 9.40397 108.67 8.86231C109.212 8.32064 109.858 8.04981 110.608 8.04981C111.358 8.04981 111.993 8.32064 112.514 8.86231C113.056 9.40397 113.327 10.0498 113.327 10.7998C113.327 11.5498 113.056 12.1956 112.514 12.7373C111.993 13.2581 111.358 13.5186 110.608 13.5186C109.858 13.5186 109.212 13.2581 108.67 12.7373ZM115.358 45.5186C114.837 44.9769 114.577 44.3311 114.577 43.5811C114.577 42.8311 114.837 42.1852 115.358 41.6436C115.899 41.1019 116.545 40.8311 117.295 40.8311C118.045 40.8311 118.691 41.1019 119.233 41.6436C119.774 42.1852 120.045 42.8311 120.045 43.5811C120.045 44.3311 119.774 44.9769 119.233 45.5186C118.691 46.0394 118.045 46.2998 117.295 46.2998C116.545 46.2998 115.899 46.0394 115.358 45.5186ZM115.358 25.8311C114.837 25.2894 114.577 24.6436 114.577 23.8936C114.577 23.1436 114.837 22.5081 115.358 21.9873C115.899 21.4456 116.545 21.1748 117.295 21.1748C118.045 21.1748 118.691 21.4456 119.233 21.9873C119.774 22.5081 120.045 23.1436 120.045 23.8936C120.045 24.6436 119.774 25.2894 119.233 25.8311C118.691 26.3519 118.045 26.6123 117.295 26.6123C116.545 26.6123 115.899 26.3519 115.358 25.8311ZM115.358 6.17481C114.837 5.63314 114.577 4.98731 114.577 4.23731C114.577 3.48731 114.837 2.84147 115.358 2.29981C115.899 1.75814 116.545 1.48731 117.295 1.48731C118.045 1.48731 118.691 1.75814 119.233 2.29981C119.774 2.84147 120.045 3.48731 120.045 4.23731C120.045 4.98731 119.774 5.63314 119.233 6.17481C118.691 6.69564 118.045 6.95606 117.295 6.95606C116.545 6.95606 115.899 6.69564 115.358 6.17481ZM122.077 45.5186C121.556 44.9769 121.295 44.3311 121.295 43.5811C121.295 42.8311 121.556 42.1852 122.077 41.6436C122.618 41.1019 123.264 40.8311 124.014 40.8311C124.764 40.8311 125.399 41.1019 125.92 41.6436C126.462 42.1852 126.733 42.8311 126.733 43.5811C126.733 44.3311 126.462 44.9769 125.92 45.5186C125.399 46.0394 124.764 46.2998 124.014 46.2998C123.264 46.2998 122.618 46.0394 122.077 45.5186ZM122.077 25.8311C121.556 25.2894 121.295 24.6436 121.295 23.8936C121.295 23.1436 121.556 22.5081 122.077 21.9873C122.618 21.4456 123.264 21.1748 124.014 21.1748C124.764 21.1748 125.399 21.4456 125.92 21.9873C126.462 22.5081 126.733 23.1436 126.733 23.8936C126.733 24.6436 126.462 25.2894 125.92 25.8311C125.399 26.3519 124.764 26.6123 124.014 26.6123C123.264 26.6123 122.618 26.3519 122.077 25.8311ZM122.077 6.17481C121.556 5.63314 121.295 4.98731 121.295 4.23731C121.295 3.48731 121.556 2.84147 122.077 2.29981C122.618 1.75814 123.264 1.48731 124.014 1.48731C124.764 1.48731 125.399 1.75814 125.92 2.29981C126.462 2.84147 126.733 3.48731 126.733 4.23731C126.733 4.98731 126.462 5.63314 125.92 6.17481C125.399 6.69564 124.764 6.95606 124.014 6.95606C123.264 6.95606 122.618 6.69564 122.077 6.17481ZM128.795 45.5186C128.274 44.9769 128.014 44.3311 128.014 43.5811C128.014 42.8311 128.274 42.1852 128.795 41.6436C129.337 41.1019 129.983 40.8311 130.733 40.8311C131.483 40.8311 132.118 41.1019 132.639 41.6436C133.181 42.1852 133.452 42.8311 133.452 43.5811C133.452 44.3311 133.181 44.9769 132.639 45.5186C132.118 46.0394 131.483 46.2998 130.733 46.2998C129.983 46.2998 129.337 46.0394 128.795 45.5186ZM128.795 25.8311C128.274 25.2894 128.014 24.6436 128.014 23.8936C128.014 23.1436 128.274 22.5081 128.795 21.9873C129.337 21.4456 129.983 21.1748 130.733 21.1748C131.483 21.1748 132.118 21.4456 132.639 21.9873C133.181 22.5081 133.452 23.1436 133.452 23.8936C133.452 24.6436 133.181 25.2894 132.639 25.8311C132.118 26.3519 131.483 26.6123 130.733 26.6123C129.983 26.6123 129.337 26.3519 128.795 25.8311ZM128.795 6.17481C128.274 5.63314 128.014 4.98731 128.014 4.23731C128.014 3.48731 128.274 2.84147 128.795 2.29981C129.337 1.75814 129.983 1.48731 130.733 1.48731C131.483 1.48731 132.118 1.75814 132.639 2.29981C133.181 2.84147 133.452 3.48731 133.452 4.23731C133.452 4.98731 133.181 5.63314 132.639 6.17481C132.118 6.69564 131.483 6.95606 130.733 6.95606C129.983 6.95606 129.337 6.69564 128.795 6.17481ZM135.514 38.9561C134.972 38.4144 134.702 37.7686 134.702 37.0186C134.702 36.2686 134.972 35.6331 135.514 35.1123C136.056 34.5706 136.702 34.2998 137.452 34.2998C138.202 34.2998 138.837 34.5706 139.358 35.1123C139.899 35.6331 140.17 36.2686 140.17 37.0186C140.17 37.7686 139.899 38.4144 139.358 38.9561C138.837 39.4769 138.202 39.7373 137.452 39.7373C136.702 39.7373 136.056 39.4769 135.514 38.9561ZM135.514 32.3936C134.972 31.8519 134.702 31.2061 134.702 30.4561C134.702 29.7061 134.972 29.0706 135.514 28.5498C136.056 28.0081 136.702 27.7373 137.452 27.7373C138.202 27.7373 138.837 28.0081 139.358 28.5498C139.899 29.0706 140.17 29.7061 140.17 30.4561C140.17 31.2061 139.899 31.8519 139.358 32.3936C138.837 32.9144 138.202 33.1748 137.452 33.1748C136.702 33.1748 136.056 32.9144 135.514 32.3936ZM135.514 12.7373C134.972 12.1956 134.702 11.5498 134.702 10.7998C134.702 10.0498 134.972 9.40397 135.514 8.86231C136.056 8.32064 136.702 8.04981 137.452 8.04981C138.202 8.04981 138.837 8.32064 139.358 8.86231C139.899 9.40397 140.17 10.0498 140.17 10.7998C140.17 11.5498 139.899 12.1956 139.358 12.7373C138.837 13.2581 138.202 13.5186 137.452 13.5186C136.702 13.5186 136.056 13.2581 135.514 12.7373Z" fill="#F52584"/>
<path d="M149.327 44.6123C149.181 44.279 149.108 43.9352 149.108 43.5811C149.108 43.2269 149.181 42.8727 149.327 42.5186C149.577 41.8311 150.056 41.3415 150.764 41.0498C151.097 40.904 151.452 40.8311 151.827 40.8311C152.181 40.8311 152.535 40.904 152.889 41.0498C153.597 41.2998 154.097 41.779 154.389 42.4873C154.535 42.8206 154.597 43.1748 154.577 43.5498C154.577 43.904 154.504 44.2581 154.358 44.6123C154.087 45.3206 153.597 45.8206 152.889 46.1123C152.556 46.2581 152.212 46.3206 151.858 46.2998C151.504 46.2998 151.149 46.2269 150.795 46.0811C150.108 45.8102 149.618 45.3206 149.327 44.6123ZM149.327 38.1123C149.181 37.779 149.108 37.4248 149.108 37.0498C149.108 36.6956 149.181 36.3415 149.327 35.9873C149.577 35.279 150.056 34.779 150.764 34.4873C151.118 34.3415 151.472 34.2686 151.827 34.2686C152.181 34.2686 152.535 34.3415 152.889 34.4873C153.597 34.7373 154.097 35.2165 154.389 35.9248C154.535 36.2581 154.597 36.6123 154.577 36.9873C154.577 37.3415 154.504 37.6956 154.358 38.0498C154.087 38.7581 153.597 39.2581 152.889 39.5498C152.535 39.6956 152.181 39.7686 151.827 39.7686C151.493 39.7686 151.149 39.6956 150.795 39.5498C150.108 39.2998 149.618 38.8206 149.327 38.1123ZM149.327 31.5498C149.181 31.2165 149.108 30.8623 149.108 30.4873C149.108 30.1331 149.181 29.779 149.327 29.4248C149.577 28.7165 150.056 28.2165 150.764 27.9248C151.118 27.779 151.472 27.7061 151.827 27.7061C152.181 27.7061 152.535 27.779 152.889 27.9248C153.597 28.1748 154.097 28.654 154.389 29.3623C154.535 29.6956 154.597 30.0498 154.577 30.4248C154.577 30.779 154.504 31.1331 154.358 31.4873C154.087 32.1956 153.597 32.6956 152.889 32.9873C152.535 33.1331 152.181 33.2061 151.827 33.2061C151.493 33.2061 151.149 33.1331 150.795 32.9873C150.108 32.7373 149.618 32.2581 149.327 31.5498ZM149.327 24.9873C149.181 24.654 149.108 24.2998 149.108 23.9248C149.108 23.5706 149.181 23.2165 149.327 22.8623C149.577 22.154 150.056 21.654 150.764 21.3623C151.097 21.2165 151.452 21.154 151.827 21.1748C152.181 21.1748 152.535 21.2477 152.889 21.3936C153.597 21.6644 154.097 22.154 154.389 22.8623C154.535 23.1956 154.597 23.5394 154.577 23.8936C154.577 24.2477 154.504 24.6019 154.358 24.9561C154.087 25.6436 153.597 26.1331 152.889 26.4248C152.556 26.5706 152.212 26.6436 151.858 26.6436C151.504 26.6436 151.149 26.5706 150.795 26.4248C150.108 26.1748 149.618 25.6956 149.327 24.9873ZM149.327 18.4248C149.181 18.0915 149.108 17.7373 149.108 17.3623C149.108 17.0081 149.181 16.654 149.327 16.2998C149.577 15.5915 150.056 15.0915 150.764 14.7998C151.097 14.654 151.452 14.5915 151.827 14.6123C152.181 14.6123 152.535 14.6852 152.889 14.8311C153.597 15.1019 154.097 15.5915 154.389 16.2998C154.535 16.6331 154.597 16.9769 154.577 17.3311C154.577 17.6852 154.504 18.0394 154.358 18.3936C154.087 19.0811 153.597 19.5706 152.889 19.8623C152.556 20.0081 152.212 20.0811 151.858 20.0811C151.504 20.0811 151.149 20.0081 150.795 19.8623C150.108 19.6123 149.618 19.1331 149.327 18.4248ZM149.327 11.8623C149.181 11.529 149.108 11.1748 149.108 10.7998C149.108 10.4456 149.181 10.0915 149.327 9.73731C149.577 9.02897 150.056 8.52897 150.764 8.23731C151.097 8.09147 151.452 8.02897 151.827 8.04981C152.181 8.04981 152.535 8.12272 152.889 8.26856C153.597 8.53939 154.097 9.02897 154.389 9.73731C154.535 10.0706 154.597 10.4144 154.577 10.7686C154.577 11.1227 154.504 11.4769 154.358 11.8311C154.087 12.5186 153.597 13.0081 152.889 13.2998C152.556 13.4456 152.212 13.5186 151.858 13.5186C151.504 13.5186 151.149 13.4456 150.795 13.2998C150.108 13.0498 149.618 12.5706 149.327 11.8623ZM156.608 25.8311C156.087 25.2894 155.827 24.6436 155.827 23.8936C155.827 23.1436 156.087 22.5081 156.608 21.9873C157.149 21.4456 157.795 21.1748 158.545 21.1748C159.295 21.1748 159.941 21.4456 160.483 21.9873C161.024 22.5081 161.295 23.1436 161.295 23.8936C161.295 24.6436 161.024 25.2894 160.483 25.8311C159.941 26.3519 159.295 26.6123 158.545 26.6123C157.795 26.6123 157.149 26.3519 156.608 25.8311ZM156.608 6.17481C156.087 5.63314 155.827 4.98731 155.827 4.23731C155.827 3.48731 156.087 2.84147 156.608 2.29981C157.149 1.75814 157.795 1.48731 158.545 1.48731C159.295 1.48731 159.941 1.75814 160.483 2.29981C161.024 2.84147 161.295 3.48731 161.295 4.23731C161.295 4.98731 161.024 5.63314 160.483 6.17481C159.941 6.69564 159.295 6.95606 158.545 6.95606C157.795 6.95606 157.149 6.69564 156.608 6.17481ZM163.327 25.8311C162.806 25.2894 162.545 24.6436 162.545 23.8936C162.545 23.1436 162.806 22.5081 163.327 21.9873C163.868 21.4456 164.514 21.1748 165.264 21.1748C166.014 21.1748 166.649 21.4456 167.17 21.9873C167.712 22.5081 167.983 23.1436 167.983 23.8936C167.983 24.6436 167.712 25.2894 167.17 25.8311C166.649 26.3519 166.014 26.6123 165.264 26.6123C164.514 26.6123 163.868 26.3519 163.327 25.8311ZM163.327 6.17481C162.806 5.63314 162.545 4.98731 162.545 4.23731C162.545 3.48731 162.806 2.84147 163.327 2.29981C163.868 1.75814 164.514 1.48731 165.264 1.48731C166.014 1.48731 166.649 1.75814 167.17 2.29981C167.712 2.84147 167.983 3.48731 167.983 4.23731C167.983 4.98731 167.712 5.63314 167.17 6.17481C166.649 6.69564 166.014 6.95606 165.264 6.95606C164.514 6.95606 163.868 6.69564 163.327 6.17481ZM169.452 24.9873C169.306 24.654 169.233 24.2998 169.233 23.9248C169.233 23.5706 169.306 23.2165 169.452 22.8623C169.702 22.154 170.181 21.654 170.889 21.3623C171.222 21.2165 171.577 21.154 171.952 21.1748C172.306 21.1748 172.66 21.2477 173.014 21.3936C173.722 21.6644 174.222 22.154 174.514 22.8623C174.66 23.2165 174.733 23.5706 174.733 23.9248C174.733 24.2581 174.66 24.6019 174.514 24.9561C174.243 25.6436 173.754 26.1331 173.045 26.4248C172.691 26.5706 172.337 26.6436 171.983 26.6436L170.92 26.4248C170.233 26.1748 169.743 25.6956 169.452 24.9873ZM169.452 5.29981C169.306 4.96647 169.233 4.61231 169.233 4.23731C169.233 3.88314 169.306 3.52897 169.452 3.17481C169.702 2.46647 170.181 1.96647 170.889 1.67481C171.222 1.52897 171.577 1.46647 171.952 1.48731C172.306 1.48731 172.66 1.56022 173.014 1.70606C173.722 1.97689 174.222 2.46647 174.514 3.17481C174.66 3.52897 174.733 3.88314 174.733 4.23731C174.733 4.57064 174.66 4.91439 174.514 5.26856C174.243 5.95606 173.754 6.44564 173.045 6.73731C172.691 6.88314 172.337 6.95606 171.983 6.95606L170.92 6.73731C170.233 6.48731 169.743 6.00814 169.452 5.29981ZM176.764 45.5186C176.222 44.9769 175.952 44.3311 175.952 43.5811C175.952 42.8311 176.222 42.1852 176.764 41.6436C177.306 41.1019 177.952 40.8311 178.702 40.8311C179.452 40.8311 180.087 41.1019 180.608 41.6436C181.149 42.1852 181.42 42.8311 181.42 43.5811C181.42 44.3311 181.149 44.9769 180.608 45.5186C180.087 46.0394 179.452 46.2998 178.702 46.2998C177.952 46.2998 177.306 46.0394 176.764 45.5186ZM176.764 38.9561C176.222 38.4144 175.952 37.7686 175.952 37.0186C175.952 36.2686 176.222 35.6331 176.764 35.1123C177.306 34.5706 177.952 34.2998 178.702 34.2998C179.452 34.2998 180.087 34.5706 180.608 35.1123C181.149 35.6331 181.42 36.2686 181.42 37.0186C181.42 37.7686 181.149 38.4144 180.608 38.9561C180.087 39.4769 179.452 39.7373 178.702 39.7373C177.952 39.7373 177.306 39.4769 176.764 38.9561ZM176.764 32.3936C176.222 31.8519 175.952 31.2061 175.952 30.4561C175.952 29.7061 176.222 29.0706 176.764 28.5498C177.306 28.0081 177.952 27.7373 178.702 27.7373C179.452 27.7373 180.087 28.0081 180.608 28.5498C181.149 29.0706 181.42 29.7061 181.42 30.4561C181.42 31.2061 181.149 31.8519 180.608 32.3936C180.087 32.9144 179.452 33.1748 178.702 33.1748C177.952 33.1748 177.306 32.9144 176.764 32.3936ZM176.764 25.8311C176.222 25.2894 175.952 24.6436 175.952 23.8936C175.952 23.1436 176.222 22.5081 176.764 21.9873C177.306 21.4456 177.952 21.1748 178.702 21.1748C179.452 21.1748 180.087 21.4456 180.608 21.9873C181.149 22.5081 181.42 23.1436 181.42 23.8936C181.42 24.6436 181.149 25.2894 180.608 25.8311C180.087 26.3519 179.452 26.6123 178.702 26.6123C177.952 26.6123 177.306 26.3519 176.764 25.8311ZM176.764 19.2686C176.222 18.7269 175.952 18.0811 175.952 17.3311C175.952 16.5811 176.222 15.9456 176.764 15.4248C177.306 14.8831 177.952 14.6123 178.702 14.6123C179.452 14.6123 180.087 14.8831 180.608 15.4248C181.149 15.9456 181.42 16.5811 181.42 17.3311C181.42 18.0811 181.149 18.7269 180.608 19.2686C180.087 19.8102 179.452 20.0811 178.702 20.0811C177.952 20.0811 177.306 19.8102 176.764 19.2686ZM176.764 12.7373C176.222 12.1956 175.952 11.5498 175.952 10.7998C175.952 10.0498 176.222 9.40397 176.764 8.86231C177.306 8.32064 177.952 8.04981 178.702 8.04981C179.452 8.04981 180.087 8.32064 180.608 8.86231C181.149 9.40397 181.42 10.0498 181.42 10.7998C181.42 11.5498 181.149 12.1956 180.608 12.7373C180.087 13.2581 179.452 13.5186 178.702 13.5186C177.952 13.5186 177.306 13.2581 176.764 12.7373Z" fill="#F52584"/>
<path d="M191.17 45.5186C190.629 44.9769 190.358 44.3311 190.358 43.5811C190.358 42.8311 190.629 42.1852 191.17 41.6436C191.712 41.1019 192.358 40.8311 193.108 40.8311C193.858 40.8311 194.493 41.1019 195.014 41.6436C195.556 42.1852 195.827 42.8311 195.827 43.5811C195.827 44.3311 195.556 44.9769 195.014 45.5186C194.493 46.0394 193.858 46.2998 193.108 46.2998C192.358 46.2998 191.712 46.0394 191.17 45.5186ZM191.17 38.9561C190.629 38.4144 190.358 37.7686 190.358 37.0186C190.358 36.2686 190.629 35.6331 191.17 35.1123C191.712 34.5706 192.358 34.2998 193.108 34.2998C193.858 34.2998 194.493 34.5706 195.014 35.1123C195.556 35.6331 195.827 36.2686 195.827 37.0186C195.827 37.7686 195.556 38.4144 195.014 38.9561C194.493 39.4769 193.858 39.7373 193.108 39.7373C192.358 39.7373 191.712 39.4769 191.17 38.9561ZM191.17 32.3936C190.629 31.8519 190.358 31.2061 190.358 30.4561C190.358 29.7061 190.629 29.0706 191.17 28.5498C191.712 28.0081 192.358 27.7373 193.108 27.7373C193.858 27.7373 194.493 28.0081 195.014 28.5498C195.556 29.0706 195.827 29.7061 195.827 30.4561C195.827 31.2061 195.556 31.8519 195.014 32.3936C194.493 32.9144 193.858 33.1748 193.108 33.1748C192.358 33.1748 191.712 32.9144 191.17 32.3936ZM191.17 25.8311C190.629 25.2894 190.358 24.6436 190.358 23.8936C190.358 23.1436 190.629 22.5081 191.17 21.9873C191.712 21.4456 192.358 21.1748 193.108 21.1748C193.858 21.1748 194.493 21.4456 195.014 21.9873C195.556 22.5081 195.827 23.1436 195.827 23.8936C195.827 24.6436 195.556 25.2894 195.014 25.8311C194.493 26.3519 193.858 26.6123 193.108 26.6123C192.358 26.6123 191.712 26.3519 191.17 25.8311ZM191.17 19.2686C190.629 18.7269 190.358 18.0811 190.358 17.3311C190.358 16.5811 190.629 15.9456 191.17 15.4248C191.712 14.8831 192.358 14.6123 193.108 14.6123C193.858 14.6123 194.493 14.8831 195.014 15.4248C195.556 15.9456 195.827 16.5811 195.827 17.3311C195.827 18.0811 195.556 18.7269 195.014 19.2686C194.493 19.8102 193.858 20.0811 193.108 20.0811C192.358 20.0811 191.712 19.8102 191.17 19.2686ZM191.17 12.7373C190.629 12.1956 190.358 11.5498 190.358 10.7998C190.358 10.0498 190.629 9.40397 191.17 8.86231C191.712 8.32064 192.358 8.04981 193.108 8.04981C193.858 8.04981 194.493 8.32064 195.014 8.86231C195.556 9.40397 195.827 10.0498 195.827 10.7998C195.827 11.5498 195.556 12.1956 195.014 12.7373C194.493 13.2581 193.858 13.5186 193.108 13.5186C192.358 13.5186 191.712 13.2581 191.17 12.7373ZM191.17 6.17481C190.629 5.63314 190.358 4.98731 190.358 4.23731C190.358 3.48731 190.629 2.84147 191.17 2.29981C191.712 1.75814 192.358 1.48731 193.108 1.48731C193.858 1.48731 194.493 1.75814 195.014 2.29981C195.556 2.84147 195.827 3.48731 195.827 4.23731C195.827 4.98731 195.556 5.63314 195.014 6.17481C194.493 6.69564 193.858 6.95606 193.108 6.95606C192.358 6.95606 191.712 6.69564 191.17 6.17481ZM197.858 45.5186C197.337 44.9769 197.077 44.3311 197.077 43.5811C197.077 42.8311 197.337 42.1852 197.858 41.6436C198.399 41.1019 199.045 40.8311 199.795 40.8311C200.545 40.8311 201.191 41.1019 201.733 41.6436C202.274 42.1852 202.545 42.8311 202.545 43.5811C202.545 44.3311 202.274 44.9769 201.733 45.5186C201.191 46.0394 200.545 46.2998 199.795 46.2998C199.045 46.2998 198.399 46.0394 197.858 45.5186ZM197.858 25.8311C197.337 25.2894 197.077 24.6436 197.077 23.8936C197.077 23.1436 197.337 22.5081 197.858 21.9873C198.399 21.4456 199.045 21.1748 199.795 21.1748C200.545 21.1748 201.191 21.4456 201.733 21.9873C202.274 22.5081 202.545 23.1436 202.545 23.8936C202.545 24.6436 202.274 25.2894 201.733 25.8311C201.191 26.3519 200.545 26.6123 199.795 26.6123C199.045 26.6123 198.399 26.3519 197.858 25.8311ZM197.858 6.17481C197.337 5.63314 197.077 4.98731 197.077 4.23731C197.077 3.48731 197.337 2.84147 197.858 2.29981C198.399 1.75814 199.045 1.48731 199.795 1.48731C200.545 1.48731 201.191 1.75814 201.733 2.29981C202.274 2.84147 202.545 3.48731 202.545 4.23731C202.545 4.98731 202.274 5.63314 201.733 6.17481C201.191 6.69564 200.545 6.95606 199.795 6.95606C199.045 6.95606 198.399 6.69564 197.858 6.17481ZM204.577 45.5186C204.056 44.9769 203.795 44.3311 203.795 43.5811C203.795 42.8311 204.056 42.1852 204.577 41.6436C205.118 41.1019 205.764 40.8311 206.514 40.8311C207.264 40.8311 207.899 41.1019 208.42 41.6436C208.962 42.1852 209.233 42.8311 209.233 43.5811C209.233 44.3311 208.962 44.9769 208.42 45.5186C207.899 46.0394 207.264 46.2998 206.514 46.2998C205.764 46.2998 205.118 46.0394 204.577 45.5186ZM204.577 25.8311C204.056 25.2894 203.795 24.6436 203.795 23.8936C203.795 23.1436 204.056 22.5081 204.577 21.9873C205.118 21.4456 205.764 21.1748 206.514 21.1748C207.264 21.1748 207.899 21.4456 208.42 21.9873C208.962 22.5081 209.233 23.1436 209.233 23.8936C209.233 24.6436 208.962 25.2894 208.42 25.8311C207.899 26.3519 207.264 26.6123 206.514 26.6123C205.764 26.6123 205.118 26.3519 204.577 25.8311ZM204.577 6.17481C204.056 5.63314 203.795 4.98731 203.795 4.23731C203.795 3.48731 204.056 2.84147 204.577 2.29981C205.118 1.75814 205.764 1.48731 206.514 1.48731C207.264 1.48731 207.899 1.75814 208.42 2.29981C208.962 2.84147 209.233 3.48731 209.233 4.23731C209.233 4.98731 208.962 5.63314 208.42 6.17481C207.899 6.69564 207.264 6.95606 206.514 6.95606C205.764 6.95606 205.118 6.69564 204.577 6.17481ZM211.295 45.5186C210.774 44.9769 210.514 44.3311 210.514 43.5811C210.514 42.8311 210.774 42.1852 211.295 41.6436C211.837 41.1019 212.483 40.8311 213.233 40.8311C213.983 40.8311 214.618 41.1019 215.139 41.6436C215.681 42.1852 215.952 42.8311 215.952 43.5811C215.952 44.3311 215.681 44.9769 215.139 45.5186C214.618 46.0394 213.983 46.2998 213.233 46.2998C212.483 46.2998 211.837 46.0394 211.295 45.5186ZM211.295 25.8311C210.774 25.2894 210.514 24.6436 210.514 23.8936C210.514 23.1436 210.774 22.5081 211.295 21.9873C211.837 21.4456 212.483 21.1748 213.233 21.1748C213.983 21.1748 214.618 21.4456 215.139 21.9873C215.681 22.5081 215.952 23.1436 215.952 23.8936C215.952 24.6436 215.681 25.2894 215.139 25.8311C214.618 26.3519 213.983 26.6123 213.233 26.6123C212.483 26.6123 211.837 26.3519 211.295 25.8311ZM211.295 6.17481C210.774 5.63314 210.514 4.98731 210.514 4.23731C210.514 3.48731 210.774 2.84147 211.295 2.29981C211.837 1.75814 212.483 1.48731 213.233 1.48731C213.983 1.48731 214.618 1.75814 215.139 2.29981C215.681 2.84147 215.952 3.48731 215.952 4.23731C215.952 4.98731 215.681 5.63314 215.139 6.17481C214.618 6.69564 213.983 6.95606 213.233 6.95606C212.483 6.95606 211.837 6.69564 211.295 6.17481ZM217.233 37.4561C217.212 37.2894 217.202 37.1331 217.202 36.9873C217.202 36.4248 217.368 35.904 217.702 35.4248C218.16 34.8206 218.764 34.4561 219.514 34.3311C219.681 34.3102 219.847 34.2998 220.014 34.2998C220.577 34.2998 221.087 34.4665 221.545 34.7998C222.149 35.2373 222.514 35.8311 222.639 36.5811C222.66 36.7477 222.681 36.9144 222.702 37.0811C222.702 37.6436 222.524 38.154 222.17 38.6123C221.733 39.2165 221.139 39.5811 220.389 39.7061C220.222 39.7269 220.056 39.7373 219.889 39.7373C219.306 39.7373 218.785 39.5706 218.327 39.2373C217.702 38.7998 217.337 38.2061 217.233 37.4561ZM217.233 30.8936C217.212 30.7269 217.202 30.5706 217.202 30.4248C217.202 29.8623 217.368 29.3415 217.702 28.8623C218.16 28.2581 218.764 27.8936 219.514 27.7686C219.681 27.7477 219.847 27.7373 220.014 27.7373C220.577 27.7373 221.087 27.904 221.545 28.2373C222.149 28.6748 222.514 29.2686 222.639 30.0186C222.66 30.1852 222.681 30.3519 222.702 30.5186C222.702 31.0811 222.524 31.5915 222.17 32.0498C221.733 32.654 221.139 33.0186 220.389 33.1436C220.222 33.1644 220.056 33.1748 219.889 33.1748C219.306 33.1748 218.785 33.0081 218.327 32.6748C217.702 32.2373 217.337 31.6436 217.233 30.8936ZM217.233 17.7686C217.212 17.6019 217.202 17.4456 217.202 17.2998C217.202 16.7373 217.368 16.2165 217.702 15.7373C218.16 15.1331 218.764 14.7686 219.514 14.6436C219.681 14.6227 219.847 14.6123 220.014 14.6123C220.577 14.6123 221.087 14.779 221.545 15.1123C222.149 15.5498 222.514 16.1436 222.639 16.8936C222.66 17.0602 222.681 17.2269 222.702 17.3936C222.702 17.9561 222.524 18.4665 222.17 18.9248C221.733 19.529 221.139 19.8936 220.389 20.0186C220.222 20.0394 220.056 20.0498 219.889 20.0498C219.306 20.0498 218.785 19.8831 218.327 19.5498C217.702 19.1123 217.337 18.5186 217.233 17.7686ZM217.389 11.8623C217.243 11.529 217.181 11.1748 217.202 10.7998C217.202 10.4456 217.274 10.0915 217.42 9.73731C217.691 9.02897 218.181 8.52897 218.889 8.23731C219.222 8.09147 219.566 8.02897 219.92 8.04981C220.274 8.04981 220.629 8.12272 220.983 8.26856C221.67 8.53939 222.16 9.02897 222.452 9.73731C222.597 10.0706 222.67 10.4144 222.67 10.7686C222.67 11.1227 222.597 11.4769 222.452 11.8311C222.202 12.5186 221.722 13.0081 221.014 13.2998C220.681 13.4456 220.327 13.5186 219.952 13.5186C219.597 13.5186 219.243 13.4456 218.889 13.2998C218.181 13.0498 217.681 12.5706 217.389 11.8623Z" fill="#F52584"/>
<path d="M231.827 44.6123C231.681 44.279 231.608 43.9352 231.608 43.5811C231.608 43.2269 231.681 42.8727 231.827 42.5186C232.077 41.8311 232.556 41.3415 233.264 41.0498C233.597 40.904 233.952 40.8311 234.327 40.8311C234.681 40.8311 235.035 40.904 235.389 41.0498C236.097 41.2998 236.597 41.779 236.889 42.4873C237.035 42.8206 237.097 43.1748 237.077 43.5498C237.077 43.904 237.004 44.2581 236.858 44.6123C236.587 45.3206 236.097 45.8206 235.389 46.1123C235.056 46.2581 234.712 46.3206 234.358 46.2998C234.004 46.2998 233.649 46.2269 233.295 46.0811C232.608 45.8102 232.118 45.3206 231.827 44.6123ZM231.827 38.1123C231.681 37.779 231.608 37.4248 231.608 37.0498C231.608 36.6956 231.681 36.3415 231.827 35.9873C232.077 35.279 232.556 34.779 233.264 34.4873C233.618 34.3415 233.972 34.2686 234.327 34.2686C234.681 34.2686 235.035 34.3415 235.389 34.4873C236.097 34.7373 236.597 35.2165 236.889 35.9248C237.035 36.2581 237.097 36.6123 237.077 36.9873C237.077 37.3415 237.004 37.6956 236.858 38.0498C236.587 38.7581 236.097 39.2581 235.389 39.5498C235.035 39.6956 234.681 39.7686 234.327 39.7686C233.993 39.7686 233.649 39.6956 233.295 39.5498C232.608 39.2998 232.118 38.8206 231.827 38.1123ZM231.827 31.5498C231.681 31.2165 231.608 30.8623 231.608 30.4873C231.608 30.1331 231.681 29.779 231.827 29.4248C232.077 28.7165 232.556 28.2165 233.264 27.9248C233.618 27.779 233.972 27.7061 234.327 27.7061C234.681 27.7061 235.035 27.779 235.389 27.9248C236.097 28.1748 236.597 28.654 236.889 29.3623C237.035 29.6956 237.097 30.0498 237.077 30.4248C237.077 30.779 237.004 31.1331 236.858 31.4873C236.587 32.1956 236.097 32.6956 235.389 32.9873C235.035 33.1331 234.681 33.2061 234.327 33.2061C233.993 33.2061 233.649 33.1331 233.295 32.9873C232.608 32.7373 232.118 32.2581 231.827 31.5498ZM231.827 24.9873C231.681 24.654 231.608 24.2998 231.608 23.9248C231.608 23.5706 231.681 23.2165 231.827 22.8623C232.077 22.154 232.556 21.654 233.264 21.3623C233.597 21.2165 233.952 21.154 234.327 21.1748C234.681 21.1748 235.035 21.2477 235.389 21.3936C236.097 21.6644 236.597 22.154 236.889 22.8623C237.035 23.1956 237.097 23.5394 237.077 23.8936C237.077 24.2477 237.004 24.6019 236.858 24.9561C236.587 25.6436 236.097 26.1331 235.389 26.4248C235.056 26.5706 234.712 26.6436 234.358 26.6436C234.004 26.6436 233.649 26.5706 233.295 26.4248C232.608 26.1748 232.118 25.6956 231.827 24.9873ZM231.827 18.4248C231.681 18.0915 231.608 17.7373 231.608 17.3623C231.608 17.0081 231.681 16.654 231.827 16.2998C232.077 15.5915 232.556 15.0915 233.264 14.7998C233.597 14.654 233.952 14.5915 234.327 14.6123C234.681 14.6123 235.035 14.6852 235.389 14.8311C236.097 15.1019 236.597 15.5915 236.889 16.2998C237.035 16.6331 237.097 16.9769 237.077 17.3311C237.077 17.6852 237.004 18.0394 236.858 18.3936C236.587 19.0811 236.097 19.5706 235.389 19.8623C235.056 20.0081 234.712 20.0811 234.358 20.0811C234.004 20.0811 233.649 20.0081 233.295 19.8623C232.608 19.6123 232.118 19.1331 231.827 18.4248ZM231.827 11.8623C231.681 11.529 231.608 11.1748 231.608 10.7998C231.608 10.4456 231.681 10.0915 231.827 9.73731C232.077 9.02897 232.556 8.52897 233.264 8.23731C233.597 8.09147 233.952 8.02897 234.327 8.04981C234.681 8.04981 235.035 8.12272 235.389 8.26856C236.097 8.53939 236.597 9.02897 236.889 9.73731C237.035 10.0706 237.097 10.4144 237.077 10.7686C237.077 11.1227 237.004 11.4769 236.858 11.8311C236.587 12.5186 236.097 13.0081 235.389 13.2998C235.056 13.4456 234.712 13.5186 234.358 13.5186C234.004 13.5186 233.649 13.4456 233.295 13.2998C232.608 13.0498 232.118 12.5706 231.827 11.8623ZM239.108 25.8311C238.587 25.2894 238.327 24.6436 238.327 23.8936C238.327 23.1436 238.587 22.5081 239.108 21.9873C239.649 21.4456 240.295 21.1748 241.045 21.1748C241.795 21.1748 242.441 21.4456 242.983 21.9873C243.524 22.5081 243.795 23.1436 243.795 23.8936C243.795 24.6436 243.524 25.2894 242.983 25.8311C242.441 26.3519 241.795 26.6123 241.045 26.6123C240.295 26.6123 239.649 26.3519 239.108 25.8311ZM239.108 6.17481C238.587 5.63314 238.327 4.98731 238.327 4.23731C238.327 3.48731 238.587 2.84147 239.108 2.29981C239.649 1.75814 240.295 1.48731 241.045 1.48731C241.795 1.48731 242.441 1.75814 242.983 2.29981C243.524 2.84147 243.795 3.48731 243.795 4.23731C243.795 4.98731 243.524 5.63314 242.983 6.17481C242.441 6.69564 241.795 6.95606 241.045 6.95606C240.295 6.95606 239.649 6.69564 239.108 6.17481ZM245.827 25.8311C245.306 25.2894 245.045 24.6436 245.045 23.8936C245.045 23.1436 245.306 22.5081 245.827 21.9873C246.368 21.4456 247.014 21.1748 247.764 21.1748C248.514 21.1748 249.149 21.4456 249.67 21.9873C250.212 22.5081 250.483 23.1436 250.483 23.8936C250.483 24.6436 250.212 25.2894 249.67 25.8311C249.149 26.3519 248.514 26.6123 247.764 26.6123C247.014 26.6123 246.368 26.3519 245.827 25.8311ZM245.827 6.17481C245.306 5.63314 245.045 4.98731 245.045 4.23731C245.045 3.48731 245.306 2.84147 245.827 2.29981C246.368 1.75814 247.014 1.48731 247.764 1.48731C248.514 1.48731 249.149 1.75814 249.67 2.29981C250.212 2.84147 250.483 3.48731 250.483 4.23731C250.483 4.98731 250.212 5.63314 249.67 6.17481C249.149 6.69564 248.514 6.95606 247.764 6.95606C247.014 6.95606 246.368 6.69564 245.827 6.17481ZM251.952 24.9873C251.806 24.654 251.733 24.2998 251.733 23.9248C251.733 23.5706 251.806 23.2165 251.952 22.8623C252.202 22.154 252.681 21.654 253.389 21.3623C253.722 21.2165 254.077 21.154 254.452 21.1748C254.806 21.1748 255.16 21.2477 255.514 21.3936C256.222 21.6644 256.722 22.154 257.014 22.8623C257.16 23.2165 257.233 23.5706 257.233 23.9248C257.233 24.2581 257.16 24.6019 257.014 24.9561C256.743 25.6436 256.254 26.1331 255.545 26.4248C255.191 26.5706 254.837 26.6436 254.483 26.6436L253.42 26.4248C252.733 26.1748 252.243 25.6956 251.952 24.9873ZM251.952 5.29981C251.806 4.96647 251.733 4.61231 251.733 4.23731C251.733 3.88314 251.806 3.52897 251.952 3.17481C252.202 2.46647 252.681 1.96647 253.389 1.67481C253.722 1.52897 254.077 1.46647 254.452 1.48731C254.806 1.48731 255.16 1.56022 255.514 1.70606C256.222 1.97689 256.722 2.46647 257.014 3.17481C257.16 3.52897 257.233 3.88314 257.233 4.23731C257.233 4.57064 257.16 4.91439 257.014 5.26856C256.743 5.95606 256.254 6.44564 255.545 6.73731C255.191 6.88314 254.837 6.95606 254.483 6.95606L253.42 6.73731C252.733 6.48731 252.243 6.00814 251.952 5.29981ZM259.264 45.5186C258.722 44.9769 258.452 44.3311 258.452 43.5811C258.452 42.8311 258.722 42.1852 259.264 41.6436C259.806 41.1019 260.452 40.8311 261.202 40.8311C261.952 40.8311 262.587 41.1019 263.108 41.6436C263.649 42.1852 263.92 42.8311 263.92 43.5811C263.92 44.3311 263.649 44.9769 263.108 45.5186C262.587 46.0394 261.952 46.2998 261.202 46.2998C260.452 46.2998 259.806 46.0394 259.264 45.5186ZM259.264 38.9561C258.722 38.4144 258.452 37.7686 258.452 37.0186C258.452 36.2686 258.722 35.6331 259.264 35.1123C259.806 34.5706 260.452 34.2998 261.202 34.2998C261.952 34.2998 262.587 34.5706 263.108 35.1123C263.649 35.6331 263.92 36.2686 263.92 37.0186C263.92 37.7686 263.649 38.4144 263.108 38.9561C262.587 39.4769 261.952 39.7373 261.202 39.7373C260.452 39.7373 259.806 39.4769 259.264 38.9561ZM259.264 32.3936C258.722 31.8519 258.452 31.2061 258.452 30.4561C258.452 29.7061 258.722 29.0706 259.264 28.5498C259.806 28.0081 260.452 27.7373 261.202 27.7373C261.952 27.7373 262.587 28.0081 263.108 28.5498C263.649 29.0706 263.92 29.7061 263.92 30.4561C263.92 31.2061 263.649 31.8519 263.108 32.3936C262.587 32.9144 261.952 33.1748 261.202 33.1748C260.452 33.1748 259.806 32.9144 259.264 32.3936ZM259.264 25.8311C258.722 25.2894 258.452 24.6436 258.452 23.8936C258.452 23.1436 258.722 22.5081 259.264 21.9873C259.806 21.4456 260.452 21.1748 261.202 21.1748C261.952 21.1748 262.587 21.4456 263.108 21.9873C263.649 22.5081 263.92 23.1436 263.92 23.8936C263.92 24.6436 263.649 25.2894 263.108 25.8311C262.587 26.3519 261.952 26.6123 261.202 26.6123C260.452 26.6123 259.806 26.3519 259.264 25.8311ZM259.264 19.2686C258.722 18.7269 258.452 18.0811 258.452 17.3311C258.452 16.5811 258.722 15.9456 259.264 15.4248C259.806 14.8831 260.452 14.6123 261.202 14.6123C261.952 14.6123 262.587 14.8831 263.108 15.4248C263.649 15.9456 263.92 16.5811 263.92 17.3311C263.92 18.0811 263.649 18.7269 263.108 19.2686C262.587 19.8102 261.952 20.0811 261.202 20.0811C260.452 20.0811 259.806 19.8102 259.264 19.2686ZM259.264 12.7373C258.722 12.1956 258.452 11.5498 258.452 10.7998C258.452 10.0498 258.722 9.40397 259.264 8.86231C259.806 8.32064 260.452 8.04981 261.202 8.04981C261.952 8.04981 262.587 8.32064 263.108 8.86231C263.649 9.40397 263.92 10.0498 263.92 10.7998C263.92 11.5498 263.649 12.1956 263.108 12.7373C262.587 13.2581 261.952 13.5186 261.202 13.5186C260.452 13.5186 259.806 13.2581 259.264 12.7373Z" fill="#F52584"/>
<path d="M273.67 45.5186C273.129 44.9769 272.858 44.3311 272.858 43.5811C272.858 42.8311 273.129 42.1852 273.67 41.6436C274.212 41.1019 274.858 40.8311 275.608 40.8311C276.358 40.8311 276.993 41.1019 277.514 41.6436C278.056 42.1852 278.327 42.8311 278.327 43.5811C278.327 44.3311 278.056 44.9769 277.514 45.5186C276.993 46.0394 276.358 46.2998 275.608 46.2998C274.858 46.2998 274.212 46.0394 273.67 45.5186ZM273.67 38.9561C273.129 38.4144 272.858 37.7686 272.858 37.0186C272.858 36.2686 273.129 35.6331 273.67 35.1123C274.212 34.5706 274.858 34.2998 275.608 34.2998C276.358 34.2998 276.993 34.5706 277.514 35.1123C278.056 35.6331 278.327 36.2686 278.327 37.0186C278.327 37.7686 278.056 38.4144 277.514 38.9561C276.993 39.4769 276.358 39.7373 275.608 39.7373C274.858 39.7373 274.212 39.4769 273.67 38.9561ZM273.67 32.3936C273.129 31.8519 272.858 31.2061 272.858 30.4561C272.858 29.7061 273.129 29.0706 273.67 28.5498C274.212 28.0081 274.858 27.7373 275.608 27.7373C276.358 27.7373 276.993 28.0081 277.514 28.5498C278.056 29.0706 278.327 29.7061 278.327 30.4561C278.327 31.2061 278.056 31.8519 277.514 32.3936C276.993 32.9144 276.358 33.1748 275.608 33.1748C274.858 33.1748 274.212 32.9144 273.67 32.3936ZM273.67 25.8311C273.129 25.2894 272.858 24.6436 272.858 23.8936C272.858 23.1436 273.129 22.5081 273.67 21.9873C274.212 21.4456 274.858 21.1748 275.608 21.1748C276.358 21.1748 276.993 21.4456 277.514 21.9873C278.056 22.5081 278.327 23.1436 278.327 23.8936C278.327 24.6436 278.056 25.2894 277.514 25.8311C276.993 26.3519 276.358 26.6123 275.608 26.6123C274.858 26.6123 274.212 26.3519 273.67 25.8311ZM273.67 19.2686C273.129 18.7269 272.858 18.0811 272.858 17.3311C272.858 16.5811 273.129 15.9456 273.67 15.4248C274.212 14.8831 274.858 14.6123 275.608 14.6123C276.358 14.6123 276.993 14.8831 277.514 15.4248C278.056 15.9456 278.327 16.5811 278.327 17.3311C278.327 18.0811 278.056 18.7269 277.514 19.2686C276.993 19.8102 276.358 20.0811 275.608 20.0811C274.858 20.0811 274.212 19.8102 273.67 19.2686ZM273.67 12.7373C273.129 12.1956 272.858 11.5498 272.858 10.7998C272.858 10.0498 273.129 9.40397 273.67 8.86231C274.212 8.32064 274.858 8.04981 275.608 8.04981C276.358 8.04981 276.993 8.32064 277.514 8.86231C278.056 9.40397 278.327 10.0498 278.327 10.7998C278.327 11.5498 278.056 12.1956 277.514 12.7373C276.993 13.2581 276.358 13.5186 275.608 13.5186C274.858 13.5186 274.212 13.2581 273.67 12.7373ZM273.67 6.17481C273.129 5.63314 272.858 4.98731 272.858 4.23731C272.858 3.48731 273.129 2.84147 273.67 2.29981C274.212 1.75814 274.858 1.48731 275.608 1.48731C276.358 1.48731 276.993 1.75814 277.514 2.29981C278.056 2.84147 278.327 3.48731 278.327 4.23731C278.327 4.98731 278.056 5.63314 277.514 6.17481C276.993 6.69564 276.358 6.95606 275.608 6.95606C274.858 6.95606 274.212 6.69564 273.67 6.17481ZM280.358 25.8311C279.837 25.2894 279.577 24.6436 279.577 23.8936C279.577 23.1436 279.837 22.5081 280.358 21.9873C280.899 21.4456 281.545 21.1748 282.295 21.1748C283.045 21.1748 283.691 21.4456 284.233 21.9873C284.774 22.5081 285.045 23.1436 285.045 23.8936C285.045 24.6436 284.774 25.2894 284.233 25.8311C283.691 26.3519 283.045 26.6123 282.295 26.6123C281.545 26.6123 280.899 26.3519 280.358 25.8311ZM280.358 6.17481C279.837 5.63314 279.577 4.98731 279.577 4.23731C279.577 3.48731 279.837 2.84147 280.358 2.29981C280.899 1.75814 281.545 1.48731 282.295 1.48731C283.045 1.48731 283.691 1.75814 284.233 2.29981C284.774 2.84147 285.045 3.48731 285.045 4.23731C285.045 4.98731 284.774 5.63314 284.233 6.17481C283.691 6.69564 283.045 6.95606 282.295 6.95606C281.545 6.95606 280.899 6.69564 280.358 6.17481ZM287.077 32.3936C286.556 31.8519 286.295 31.2061 286.295 30.4561C286.295 29.7061 286.556 29.0706 287.077 28.5498C287.618 28.0081 288.264 27.7373 289.014 27.7373C289.764 27.7373 290.399 28.0081 290.92 28.5498C291.462 29.0706 291.733 29.7061 291.733 30.4561C291.733 31.2061 291.462 31.8519 290.92 32.3936C290.399 32.9144 289.764 33.1748 289.014 33.1748C288.264 33.1748 287.618 32.9144 287.077 32.3936ZM287.077 25.8311C286.556 25.2894 286.295 24.6436 286.295 23.8936C286.295 23.1436 286.556 22.5081 287.077 21.9873C287.618 21.4456 288.264 21.1748 289.014 21.1748C289.764 21.1748 290.399 21.4456 290.92 21.9873C291.462 22.5081 291.733 23.1436 291.733 23.8936C291.733 24.6436 291.462 25.2894 290.92 25.8311C290.399 26.3519 289.764 26.6123 289.014 26.6123C288.264 26.6123 287.618 26.3519 287.077 25.8311ZM287.077 6.17481C286.556 5.63314 286.295 4.98731 286.295 4.23731C286.295 3.48731 286.556 2.84147 287.077 2.29981C287.618 1.75814 288.264 1.48731 289.014 1.48731C289.764 1.48731 290.399 1.75814 290.92 2.29981C291.462 2.84147 291.733 3.48731 291.733 4.23731C291.733 4.98731 291.462 5.63314 290.92 6.17481C290.399 6.69564 289.764 6.95606 289.014 6.95606C288.264 6.95606 287.618 6.69564 287.077 6.17481ZM293.795 38.9561C293.274 38.4144 293.014 37.7686 293.014 37.0186C293.014 36.2686 293.274 35.6331 293.795 35.1123C294.337 34.5706 294.983 34.2998 295.733 34.2998C296.483 34.2998 297.118 34.5706 297.639 35.1123C298.181 35.6331 298.452 36.2686 298.452 37.0186C298.452 37.7686 298.181 38.4144 297.639 38.9561C297.118 39.4769 296.483 39.7373 295.733 39.7373C294.983 39.7373 294.337 39.4769 293.795 38.9561ZM293.795 25.8311C293.274 25.2894 293.014 24.6436 293.014 23.8936C293.014 23.1436 293.274 22.5081 293.795 21.9873C294.337 21.4456 294.983 21.1748 295.733 21.1748C296.483 21.1748 297.118 21.4456 297.639 21.9873C298.181 22.5081 298.452 23.1436 298.452 23.8936C298.452 24.6436 298.181 25.2894 297.639 25.8311C297.118 26.3519 296.483 26.6123 295.733 26.6123C294.983 26.6123 294.337 26.3519 293.795 25.8311ZM293.795 6.17481C293.274 5.63314 293.014 4.98731 293.014 4.23731C293.014 3.48731 293.274 2.84147 293.795 2.29981C294.337 1.75814 294.983 1.48731 295.733 1.48731C296.483 1.48731 297.118 1.75814 297.639 2.29981C298.181 2.84147 298.452 3.48731 298.452 4.23731C298.452 4.98731 298.181 5.63314 297.639 6.17481C297.118 6.69564 296.483 6.95606 295.733 6.95606C294.983 6.95606 294.337 6.69564 293.795 6.17481ZM300.514 45.5186C299.972 44.9769 299.702 44.3311 299.702 43.5811C299.702 42.8311 299.972 42.1852 300.514 41.6436C301.056 41.1019 301.702 40.8311 302.452 40.8311C303.202 40.8311 303.837 41.1019 304.358 41.6436C304.899 42.1852 305.17 42.8311 305.17 43.5811C305.17 44.3311 304.899 44.9769 304.358 45.5186C303.837 46.0394 303.202 46.2998 302.452 46.2998C301.702 46.2998 301.056 46.0394 300.514 45.5186ZM300.514 19.2686C299.972 18.7269 299.702 18.0811 299.702 17.3311C299.702 16.5811 299.972 15.9456 300.514 15.4248C301.056 14.8831 301.702 14.6123 302.452 14.6123C303.202 14.6123 303.837 14.8831 304.358 15.4248C304.899 15.9456 305.17 16.5811 305.17 17.3311C305.17 18.0811 304.899 18.7269 304.358 19.2686C303.837 19.8102 303.202 20.0811 302.452 20.0811C301.702 20.0811 301.056 19.8102 300.514 19.2686ZM300.514 12.7373C299.972 12.1956 299.702 11.5498 299.702 10.7998C299.702 10.0498 299.972 9.40397 300.514 8.86231C301.056 8.32064 301.702 8.04981 302.452 8.04981C303.202 8.04981 303.837 8.32064 304.358 8.86231C304.899 9.40397 305.17 10.0498 305.17 10.7998C305.17 11.5498 304.899 12.1956 304.358 12.7373C303.837 13.2581 303.202 13.5186 302.452 13.5186C301.702 13.5186 301.056 13.2581 300.514 12.7373Z" fill="#F52584"/>
<path d="M314.17 44.0186C314.149 43.8519 314.139 43.6852 314.139 43.5186C314.139 42.9561 314.306 42.4456 314.639 41.9873C315.077 41.3623 315.67 40.9873 316.42 40.8623C316.587 40.8415 316.743 40.8206 316.889 40.7998C317.452 40.7998 317.972 40.9873 318.452 41.3623C319.056 41.8206 319.42 42.4144 319.545 43.1436C319.566 43.3102 319.587 43.4769 319.608 43.6436C319.608 44.2061 319.431 44.7165 319.077 45.1748C318.639 45.779 318.045 46.1436 317.295 46.2686C317.129 46.2894 316.962 46.2998 316.795 46.2998C316.233 46.2998 315.722 46.1331 315.264 45.7998C314.66 45.3623 314.295 44.7686 314.17 44.0186ZM314.17 4.64356C314.149 4.47689 314.139 4.31022 314.139 4.14356C314.139 3.58106 314.306 3.07064 314.639 2.61231C315.077 2.00814 315.67 1.64356 316.42 1.51856C316.587 1.49772 316.743 1.48731 316.889 1.48731C317.452 1.48731 317.972 1.65397 318.452 1.98731C319.056 2.44564 319.42 3.04981 319.545 3.79981C319.566 3.96647 319.587 4.13314 319.608 4.29981C319.608 4.86231 319.431 5.37272 319.077 5.83106C318.639 6.43522 318.045 6.79981 317.295 6.92481C317.129 6.94564 316.972 6.95606 316.827 6.95606C316.264 6.93522 315.743 6.75814 315.264 6.42481C314.66 5.96647 314.295 5.37272 314.17 4.64356ZM321.608 45.5186C321.087 44.9769 320.827 44.3311 320.827 43.5811C320.827 42.8311 321.087 42.1852 321.608 41.6436C322.149 41.1019 322.795 40.8311 323.545 40.8311C324.295 40.8311 324.941 41.1019 325.483 41.6436C326.024 42.1852 326.295 42.8311 326.295 43.5811C326.295 44.3311 326.024 44.9769 325.483 45.5186C324.941 46.0394 324.295 46.2998 323.545 46.2998C322.795 46.2998 322.149 46.0394 321.608 45.5186ZM321.608 38.9561C321.087 38.4144 320.827 37.7686 320.827 37.0186C320.827 36.2686 321.087 35.6331 321.608 35.1123C322.149 34.5706 322.795 34.2998 323.545 34.2998C324.295 34.2998 324.941 34.5706 325.483 35.1123C326.024 35.6331 326.295 36.2686 326.295 37.0186C326.295 37.7686 326.024 38.4144 325.483 38.9561C324.941 39.4769 324.295 39.7373 323.545 39.7373C322.795 39.7373 322.149 39.4769 321.608 38.9561ZM321.608 32.3936C321.087 31.8519 320.827 31.2061 320.827 30.4561C320.827 29.7061 321.087 29.0706 321.608 28.5498C322.149 28.0081 322.795 27.7373 323.545 27.7373C324.295 27.7373 324.941 28.0081 325.483 28.5498C326.024 29.0706 326.295 29.7061 326.295 30.4561C326.295 31.2061 326.024 31.8519 325.483 32.3936C324.941 32.9144 324.295 33.1748 323.545 33.1748C322.795 33.1748 322.149 32.9144 321.608 32.3936ZM321.608 25.8311C321.087 25.2894 320.827 24.6436 320.827 23.8936C320.827 23.1436 321.087 22.5081 321.608 21.9873C322.149 21.4456 322.795 21.1748 323.545 21.1748C324.295 21.1748 324.941 21.4456 325.483 21.9873C326.024 22.5081 326.295 23.1436 326.295 23.8936C326.295 24.6436 326.024 25.2894 325.483 25.8311C324.941 26.3519 324.295 26.6123 323.545 26.6123C322.795 26.6123 322.149 26.3519 321.608 25.8311ZM321.608 19.2686C321.087 18.7269 320.827 18.0811 320.827 17.3311C320.827 16.5811 321.087 15.9456 321.608 15.4248C322.149 14.8831 322.795 14.6123 323.545 14.6123C324.295 14.6123 324.941 14.8831 325.483 15.4248C326.024 15.9456 326.295 16.5811 326.295 17.3311C326.295 18.0811 326.024 18.7269 325.483 19.2686C324.941 19.8102 324.295 20.0811 323.545 20.0811C322.795 20.0811 322.149 19.8102 321.608 19.2686ZM321.608 12.7373C321.087 12.1956 320.827 11.5498 320.827 10.7998C320.827 10.0498 321.087 9.40397 321.608 8.86231C322.149 8.32064 322.795 8.04981 323.545 8.04981C324.295 8.04981 324.941 8.32064 325.483 8.86231C326.024 9.40397 326.295 10.0498 326.295 10.7998C326.295 11.5498 326.024 12.1956 325.483 12.7373C324.941 13.2581 324.295 13.5186 323.545 13.5186C322.795 13.5186 322.149 13.2581 321.608 12.7373ZM321.608 6.17481C321.087 5.63314 320.827 4.98731 320.827 4.23731C320.827 3.48731 321.087 2.84147 321.608 2.29981C322.149 1.75814 322.795 1.48731 323.545 1.48731C324.295 1.48731 324.941 1.75814 325.483 2.29981C326.024 2.84147 326.295 3.48731 326.295 4.23731C326.295 4.98731 326.024 5.63314 325.483 6.17481C324.941 6.69564 324.295 6.95606 323.545 6.95606C322.795 6.95606 322.149 6.69564 321.608 6.17481ZM328.327 45.5186C327.806 44.9769 327.545 44.3311 327.545 43.5811C327.545 42.8311 327.806 42.1852 328.327 41.6436C328.868 41.1019 329.514 40.8311 330.264 40.8311C331.014 40.8311 331.649 41.1019 332.17 41.6436C332.712 42.1852 332.983 42.8311 332.983 43.5811C332.983 44.3311 332.712 44.9769 332.17 45.5186C331.649 46.0394 331.014 46.2998 330.264 46.2998C329.514 46.2998 328.868 46.0394 328.327 45.5186ZM328.327 6.17481C327.806 5.63314 327.545 4.98731 327.545 4.23731C327.545 3.48731 327.806 2.84147 328.327 2.29981C328.868 1.75814 329.514 1.48731 330.264 1.48731C331.014 1.48731 331.649 1.75814 332.17 2.29981C332.712 2.84147 332.983 3.48731 332.983 4.23731C332.983 4.98731 332.712 5.63314 332.17 6.17481C331.649 6.69564 331.014 6.95606 330.264 6.95606C329.514 6.95606 328.868 6.69564 328.327 6.17481Z" fill="#F52584"/>
<path d="M342.733 38.9561C342.191 38.4144 341.92 37.7686 341.92 37.0186C341.92 36.2686 342.191 35.6331 342.733 35.1123C343.274 34.5706 343.92 34.2998 344.67 34.2998C345.42 34.2998 346.056 34.5706 346.577 35.1123C347.118 35.6331 347.389 36.2686 347.389 37.0186C347.389 37.7686 347.118 38.4144 346.577 38.9561C346.056 39.4769 345.42 39.7373 344.67 39.7373C343.92 39.7373 343.274 39.4769 342.733 38.9561ZM342.733 19.2686C342.191 18.7269 341.92 18.0811 341.92 17.3311C341.92 16.5811 342.191 15.9456 342.733 15.4248C343.274 14.8831 343.92 14.6123 344.67 14.6123C345.42 14.6123 346.056 14.8831 346.577 15.4248C347.118 15.9456 347.389 16.5811 347.389 17.3311C347.389 18.0811 347.118 18.7269 346.577 19.2686C346.056 19.8102 345.42 20.0811 344.67 20.0811C343.92 20.0811 343.274 19.8102 342.733 19.2686ZM342.733 12.7373C342.191 12.1956 341.92 11.5498 341.92 10.7998C341.92 10.0498 342.191 9.40397 342.733 8.86231C343.274 8.32064 343.92 8.04981 344.67 8.04981C345.42 8.04981 346.056 8.32064 346.577 8.86231C347.118 9.40397 347.389 10.0498 347.389 10.7998C347.389 11.5498 347.118 12.1956 346.577 12.7373C346.056 13.2581 345.42 13.5186 344.67 13.5186C343.92 13.5186 343.274 13.2581 342.733 12.7373ZM349.42 45.5186C348.899 44.9769 348.639 44.3311 348.639 43.5811C348.639 42.8311 348.899 42.1852 349.42 41.6436C349.962 41.1019 350.608 40.8311 351.358 40.8311C352.108 40.8311 352.754 41.1019 353.295 41.6436C353.837 42.1852 354.108 42.8311 354.108 43.5811C354.108 44.3311 353.837 44.9769 353.295 45.5186C352.754 46.0394 352.108 46.2998 351.358 46.2998C350.608 46.2998 349.962 46.0394 349.42 45.5186ZM349.42 25.8311C348.899 25.2894 348.639 24.6436 348.639 23.8936C348.639 23.1436 348.899 22.5081 349.42 21.9873C349.962 21.4456 350.608 21.1748 351.358 21.1748C352.108 21.1748 352.754 21.4456 353.295 21.9873C353.837 22.5081 354.108 23.1436 354.108 23.8936C354.108 24.6436 353.837 25.2894 353.295 25.8311C352.754 26.3519 352.108 26.6123 351.358 26.6123C350.608 26.6123 349.962 26.3519 349.42 25.8311ZM349.42 6.17481C348.899 5.63314 348.639 4.98731 348.639 4.23731C348.639 3.48731 348.899 2.84147 349.42 2.29981C349.962 1.75814 350.608 1.48731 351.358 1.48731C352.108 1.48731 352.754 1.75814 353.295 2.29981C353.837 2.84147 354.108 3.48731 354.108 4.23731C354.108 4.98731 353.837 5.63314 353.295 6.17481C352.754 6.69564 352.108 6.95606 351.358 6.95606C350.608 6.95606 349.962 6.69564 349.42 6.17481ZM356.139 45.5186C355.618 44.9769 355.358 44.3311 355.358 43.5811C355.358 42.8311 355.618 42.1852 356.139 41.6436C356.681 41.1019 357.327 40.8311 358.077 40.8311C358.827 40.8311 359.462 41.1019 359.983 41.6436C360.524 42.1852 360.795 42.8311 360.795 43.5811C360.795 44.3311 360.524 44.9769 359.983 45.5186C359.462 46.0394 358.827 46.2998 358.077 46.2998C357.327 46.2998 356.681 46.0394 356.139 45.5186ZM356.139 25.8311C355.618 25.2894 355.358 24.6436 355.358 23.8936C355.358 23.1436 355.618 22.5081 356.139 21.9873C356.681 21.4456 357.327 21.1748 358.077 21.1748C358.827 21.1748 359.462 21.4456 359.983 21.9873C360.524 22.5081 360.795 23.1436 360.795 23.8936C360.795 24.6436 360.524 25.2894 359.983 25.8311C359.462 26.3519 358.827 26.6123 358.077 26.6123C357.327 26.6123 356.681 26.3519 356.139 25.8311ZM356.139 6.17481C355.618 5.63314 355.358 4.98731 355.358 4.23731C355.358 3.48731 355.618 2.84147 356.139 2.29981C356.681 1.75814 357.327 1.48731 358.077 1.48731C358.827 1.48731 359.462 1.75814 359.983 2.29981C360.524 2.84147 360.795 3.48731 360.795 4.23731C360.795 4.98731 360.524 5.63314 359.983 6.17481C359.462 6.69564 358.827 6.95606 358.077 6.95606C357.327 6.95606 356.681 6.69564 356.139 6.17481ZM362.858 45.5186C362.337 44.9769 362.077 44.3311 362.077 43.5811C362.077 42.8311 362.337 42.1852 362.858 41.6436C363.399 41.1019 364.045 40.8311 364.795 40.8311C365.545 40.8311 366.181 41.1019 366.702 41.6436C367.243 42.1852 367.514 42.8311 367.514 43.5811C367.514 44.3311 367.243 44.9769 366.702 45.5186C366.181 46.0394 365.545 46.2998 364.795 46.2998C364.045 46.2998 363.399 46.0394 362.858 45.5186ZM362.858 25.8311C362.337 25.2894 362.077 24.6436 362.077 23.8936C362.077 23.1436 362.337 22.5081 362.858 21.9873C363.399 21.4456 364.045 21.1748 364.795 21.1748C365.545 21.1748 366.181 21.4456 366.702 21.9873C367.243 22.5081 367.514 23.1436 367.514 23.8936C367.514 24.6436 367.243 25.2894 366.702 25.8311C366.181 26.3519 365.545 26.6123 364.795 26.6123C364.045 26.6123 363.399 26.3519 362.858 25.8311ZM362.858 6.17481C362.337 5.63314 362.077 4.98731 362.077 4.23731C362.077 3.48731 362.337 2.84147 362.858 2.29981C363.399 1.75814 364.045 1.48731 364.795 1.48731C365.545 1.48731 366.181 1.75814 366.702 2.29981C367.243 2.84147 367.514 3.48731 367.514 4.23731C367.514 4.98731 367.243 5.63314 366.702 6.17481C366.181 6.69564 365.545 6.95606 364.795 6.95606C364.045 6.95606 363.399 6.69564 362.858 6.17481ZM369.577 38.9561C369.035 38.4144 368.764 37.7686 368.764 37.0186C368.764 36.2686 369.035 35.6331 369.577 35.1123C370.118 34.5706 370.764 34.2998 371.514 34.2998C372.264 34.2998 372.899 34.5706 373.42 35.1123C373.962 35.6331 374.233 36.2686 374.233 37.0186C374.233 37.7686 373.962 38.4144 373.42 38.9561C372.899 39.4769 372.264 39.7373 371.514 39.7373C370.764 39.7373 370.118 39.4769 369.577 38.9561ZM369.577 32.3936C369.035 31.8519 368.764 31.2061 368.764 30.4561C368.764 29.7061 369.035 29.0706 369.577 28.5498C370.118 28.0081 370.764 27.7373 371.514 27.7373C372.264 27.7373 372.899 28.0081 373.42 28.5498C373.962 29.0706 374.233 29.7061 374.233 30.4561C374.233 31.2061 373.962 31.8519 373.42 32.3936C372.899 32.9144 372.264 33.1748 371.514 33.1748C370.764 33.1748 370.118 32.9144 369.577 32.3936ZM369.577 12.7373C369.035 12.1956 368.764 11.5498 368.764 10.7998C368.764 10.0498 369.035 9.40397 369.577 8.86231C370.118 8.32064 370.764 8.04981 371.514 8.04981C372.264 8.04981 372.899 8.32064 373.42 8.86231C373.962 9.40397 374.233 10.0498 374.233 10.7998C374.233 11.5498 373.962 12.1956 373.42 12.7373C372.899 13.2581 372.264 13.5186 371.514 13.5186C370.764 13.5186 370.118 13.2581 369.577 12.7373Z" fill="#F52584"/>
<path d="M383.983 45.5186C383.441 44.9769 383.17 44.3311 383.17 43.5811C383.17 42.8311 383.441 42.1852 383.983 41.6436C384.524 41.1019 385.17 40.8311 385.92 40.8311C386.67 40.8311 387.306 41.1019 387.827 41.6436C388.368 42.1852 388.639 42.8311 388.639 43.5811C388.639 44.3311 388.368 44.9769 387.827 45.5186C387.306 46.0394 386.67 46.2998 385.92 46.2998C385.17 46.2998 384.524 46.0394 383.983 45.5186ZM383.983 38.9561C383.441 38.4144 383.17 37.7686 383.17 37.0186C383.17 36.2686 383.441 35.6331 383.983 35.1123C384.524 34.5706 385.17 34.2998 385.92 34.2998C386.67 34.2998 387.306 34.5706 387.827 35.1123C388.368 35.6331 388.639 36.2686 388.639 37.0186C388.639 37.7686 388.368 38.4144 387.827 38.9561C387.306 39.4769 386.67 39.7373 385.92 39.7373C385.17 39.7373 384.524 39.4769 383.983 38.9561ZM383.983 32.3936C383.441 31.8519 383.17 31.2061 383.17 30.4561C383.17 29.7061 383.441 29.0706 383.983 28.5498C384.524 28.0081 385.17 27.7373 385.92 27.7373C386.67 27.7373 387.306 28.0081 387.827 28.5498C388.368 29.0706 388.639 29.7061 388.639 30.4561C388.639 31.2061 388.368 31.8519 387.827 32.3936C387.306 32.9144 386.67 33.1748 385.92 33.1748C385.17 33.1748 384.524 32.9144 383.983 32.3936ZM383.983 25.8311C383.441 25.2894 383.17 24.6436 383.17 23.8936C383.17 23.1436 383.441 22.5081 383.983 21.9873C384.524 21.4456 385.17 21.1748 385.92 21.1748C386.67 21.1748 387.306 21.4456 387.827 21.9873C388.368 22.5081 388.639 23.1436 388.639 23.8936C388.639 24.6436 388.368 25.2894 387.827 25.8311C387.306 26.3519 386.67 26.6123 385.92 26.6123C385.17 26.6123 384.524 26.3519 383.983 25.8311ZM383.983 19.2686C383.441 18.7269 383.17 18.0811 383.17 17.3311C383.17 16.5811 383.441 15.9456 383.983 15.4248C384.524 14.8831 385.17 14.6123 385.92 14.6123C386.67 14.6123 387.306 14.8831 387.827 15.4248C388.368 15.9456 388.639 16.5811 388.639 17.3311C388.639 18.0811 388.368 18.7269 387.827 19.2686C387.306 19.8102 386.67 20.0811 385.92 20.0811C385.17 20.0811 384.524 19.8102 383.983 19.2686ZM383.983 12.7373C383.441 12.1956 383.17 11.5498 383.17 10.7998C383.17 10.0498 383.441 9.40397 383.983 8.86231C384.524 8.32064 385.17 8.04981 385.92 8.04981C386.67 8.04981 387.306 8.32064 387.827 8.86231C388.368 9.40397 388.639 10.0498 388.639 10.7998C388.639 11.5498 388.368 12.1956 387.827 12.7373C387.306 13.2581 386.67 13.5186 385.92 13.5186C385.17 13.5186 384.524 13.2581 383.983 12.7373ZM383.983 6.17481C383.441 5.63314 383.17 4.98731 383.17 4.23731C383.17 3.48731 383.441 2.84147 383.983 2.29981C384.524 1.75814 385.17 1.48731 385.92 1.48731C386.67 1.48731 387.306 1.75814 387.827 2.29981C388.368 2.84147 388.639 3.48731 388.639 4.23731C388.639 4.98731 388.368 5.63314 387.827 6.17481C387.306 6.69564 386.67 6.95606 385.92 6.95606C385.17 6.95606 384.524 6.69564 383.983 6.17481ZM389.92 24.3311C389.899 24.1644 389.889 24.0081 389.889 23.8623C389.889 23.2998 390.056 22.779 390.389 22.2998C390.847 21.6956 391.452 21.3311 392.202 21.2061C392.368 21.1852 392.535 21.1748 392.702 21.1748C393.264 21.1748 393.774 21.3415 394.233 21.6748C394.837 22.1123 395.202 22.7061 395.327 23.4561C395.347 23.6227 395.368 23.7894 395.389 23.9561C395.389 24.5186 395.212 25.029 394.858 25.4873C394.42 26.0915 393.827 26.4561 393.077 26.5811C392.91 26.6019 392.743 26.6123 392.577 26.6123C391.993 26.6123 391.472 26.4456 391.014 26.1123C390.389 25.6748 390.024 25.0811 389.92 24.3311ZM397.389 25.8311C396.868 25.2894 396.608 24.6436 396.608 23.8936C396.608 23.1436 396.868 22.5081 397.389 21.9873C397.931 21.4456 398.577 21.1748 399.327 21.1748C400.077 21.1748 400.712 21.4456 401.233 21.9873C401.774 22.5081 402.045 23.1436 402.045 23.8936C402.045 24.6436 401.774 25.2894 401.233 25.8311C400.712 26.3519 400.077 26.6123 399.327 26.6123C398.577 26.6123 397.931 26.3519 397.389 25.8311ZM404.108 25.8311C403.587 25.2894 403.327 24.6436 403.327 23.8936C403.327 23.1436 403.587 22.5081 404.108 21.9873C404.649 21.4456 405.295 21.1748 406.045 21.1748C406.795 21.1748 407.431 21.4456 407.952 21.9873C408.493 22.5081 408.764 23.1436 408.764 23.8936C408.764 24.6436 408.493 25.2894 407.952 25.8311C407.431 26.3519 406.795 26.6123 406.045 26.6123C405.295 26.6123 404.649 26.3519 404.108 25.8311ZM410.077 44.0186C410.056 43.8519 410.045 43.6852 410.045 43.5186C410.045 42.9561 410.212 42.4456 410.545 41.9873C410.983 41.3623 411.577 40.9873 412.327 40.8623C412.493 40.8415 412.649 40.8311 412.795 40.8311C413.358 40.8519 413.879 41.029 414.358 41.3623C414.962 41.8206 415.327 42.4144 415.452 43.1436C415.472 43.3102 415.493 43.4769 415.514 43.6436C415.514 44.2061 415.337 44.7165 414.983 45.1748C414.545 45.779 413.952 46.1436 413.202 46.2686C413.035 46.2894 412.868 46.2998 412.702 46.2998C412.139 46.2998 411.629 46.1331 411.17 45.7998C410.566 45.3623 410.202 44.7686 410.077 44.0186ZM410.077 37.4561C410.056 37.2894 410.045 37.1227 410.045 36.9561C410.045 36.3936 410.212 35.8831 410.545 35.4248C410.983 34.8206 411.577 34.4561 412.327 34.3311C412.493 34.3102 412.66 34.2998 412.827 34.2998C413.389 34.2998 413.899 34.4665 414.358 34.7998C414.962 35.2373 415.327 35.8311 415.452 36.5811C415.472 36.7477 415.493 36.9144 415.514 37.0811C415.514 37.6436 415.337 38.154 414.983 38.6123C414.545 39.2165 413.952 39.5811 413.202 39.7061C413.035 39.7269 412.868 39.7373 412.702 39.7373C412.139 39.7373 411.629 39.5706 411.17 39.2373C410.566 38.7998 410.202 38.2061 410.077 37.4561ZM410.077 30.8936C410.056 30.7269 410.045 30.5602 410.045 30.3936C410.045 29.8311 410.212 29.3206 410.545 28.8623C410.983 28.2581 411.577 27.8936 412.327 27.7686C412.493 27.7477 412.66 27.7373 412.827 27.7373C413.389 27.7373 413.899 27.904 414.358 28.2373C414.962 28.6748 415.327 29.2686 415.452 30.0186C415.472 30.1852 415.493 30.3519 415.514 30.5186C415.514 31.0811 415.337 31.5915 414.983 32.0498C414.545 32.654 413.952 33.0186 413.202 33.1436C413.035 33.1644 412.868 33.1748 412.702 33.1748C412.139 33.1748 411.629 33.0081 411.17 32.6748C410.566 32.2373 410.202 31.6436 410.077 30.8936ZM410.077 24.3311C410.056 24.1644 410.045 23.9977 410.045 23.8311C410.045 23.2686 410.212 22.7581 410.545 22.2998C410.983 21.6956 411.577 21.3311 412.327 21.2061C412.493 21.1852 412.66 21.1748 412.827 21.1748C413.389 21.1748 413.899 21.3415 414.358 21.6748C414.962 22.1123 415.327 22.7061 415.452 23.4561C415.472 23.6227 415.493 23.7894 415.514 23.9561C415.514 24.5186 415.337 25.029 414.983 25.4873C414.545 26.0915 413.952 26.4561 413.202 26.5811C413.035 26.6019 412.868 26.6123 412.702 26.6123C412.139 26.6123 411.629 26.4456 411.17 26.1123C410.566 25.6748 410.202 25.0811 410.077 24.3311ZM410.077 17.7686C410.056 17.6019 410.045 17.4352 410.045 17.2686C410.045 16.7061 410.212 16.1956 410.545 15.7373C410.983 15.1331 411.577 14.7686 412.327 14.6436C412.493 14.6227 412.66 14.6123 412.827 14.6123C413.389 14.6123 413.899 14.779 414.358 15.1123C414.962 15.5498 415.327 16.1436 415.452 16.8936C415.472 17.0602 415.493 17.2269 415.514 17.3936C415.514 17.9561 415.337 18.4665 414.983 18.9248C414.545 19.529 413.952 19.8936 413.202 20.0186C413.035 20.0394 412.868 20.0498 412.702 20.0498C412.139 20.0498 411.629 19.8831 411.17 19.5498C410.566 19.1123 410.202 18.5186 410.077 17.7686ZM410.077 11.2061C410.056 11.0394 410.045 10.8727 410.045 10.7061C410.045 10.1436 410.212 9.63314 410.545 9.17481C410.983 8.57064 411.577 8.20606 412.327 8.08106C412.493 8.06022 412.66 8.04981 412.827 8.04981C413.389 8.04981 413.899 8.21647 414.358 8.54981C414.962 8.98731 415.327 9.58106 415.452 10.3311C415.472 10.4977 415.493 10.6644 415.514 10.8311C415.514 11.3936 415.337 11.904 414.983 12.3623C414.545 12.9665 413.952 13.3311 413.202 13.4561C413.035 13.4769 412.868 13.4873 412.702 13.4873C412.139 13.4873 411.629 13.3206 411.17 12.9873C410.566 12.5498 410.202 11.9561 410.077 11.2061ZM410.202 5.29981C410.056 4.96647 409.993 4.61231 410.014 4.23731C410.014 3.88314 410.087 3.52897 410.233 3.17481C410.504 2.46647 410.993 1.96647 411.702 1.67481C412.035 1.52897 412.379 1.46647 412.733 1.48731C413.087 1.48731 413.441 1.56022 413.795 1.70606C414.483 1.97689 414.972 2.46647 415.264 3.17481C415.41 3.50814 415.483 3.85189 415.483 4.20606C415.483 4.56022 415.41 4.91439 415.264 5.26856C415.014 5.95606 414.535 6.44564 413.827 6.73731C413.493 6.88314 413.139 6.95606 412.764 6.95606C412.41 6.95606 412.056 6.88314 411.702 6.73731C410.993 6.48731 410.493 6.00814 410.202 5.29981Z" fill="#F52584"/>
<path d="M453.295 32.3936C452.754 31.8519 452.483 31.2061 452.483 30.4561C452.483 29.7061 452.754 29.0706 453.295 28.5498C453.837 28.0081 454.483 27.7373 455.233 27.7373C455.983 27.7373 456.618 28.0081 457.139 28.5498C457.681 29.0706 457.952 29.7061 457.952 30.4561C457.952 31.2061 457.681 31.8519 457.139 32.3936C456.618 32.9144 455.983 33.1748 455.233 33.1748C454.483 33.1748 453.837 32.9144 453.295 32.3936ZM453.295 25.8311C452.754 25.2894 452.483 24.6436 452.483 23.8936C452.483 23.1436 452.754 22.5081 453.295 21.9873C453.837 21.4456 454.483 21.1748 455.233 21.1748C455.983 21.1748 456.618 21.4456 457.139 21.9873C457.681 22.5081 457.952 23.1436 457.952 23.8936C457.952 24.6436 457.681 25.2894 457.139 25.8311C456.618 26.3519 455.983 26.6123 455.233 26.6123C454.483 26.6123 453.837 26.3519 453.295 25.8311ZM453.295 19.2686C452.754 18.7269 452.483 18.0811 452.483 17.3311C452.483 16.5811 452.754 15.9456 453.295 15.4248C453.837 14.8831 454.483 14.6123 455.233 14.6123C455.983 14.6123 456.618 14.8831 457.139 15.4248C457.681 15.9456 457.952 16.5811 457.952 17.3311C457.952 18.0811 457.681 18.7269 457.139 19.2686C456.618 19.8102 455.983 20.0811 455.233 20.0811C454.483 20.0811 453.837 19.8102 453.295 19.2686ZM453.295 12.7373C452.754 12.1956 452.483 11.5498 452.483 10.7998C452.483 10.0498 452.754 9.40397 453.295 8.86231C453.837 8.32064 454.483 8.04981 455.233 8.04981C455.983 8.04981 456.618 8.32064 457.139 8.86231C457.681 9.40397 457.952 10.0498 457.952 10.7998C457.952 11.5498 457.681 12.1956 457.139 12.7373C456.618 13.2581 455.983 13.5186 455.233 13.5186C454.483 13.5186 453.837 13.2581 453.295 12.7373ZM453.295 6.17481C452.754 5.63314 452.483 4.98731 452.483 4.23731C452.483 3.48731 452.754 2.84147 453.295 2.29981C453.837 1.75814 454.483 1.48731 455.233 1.48731C455.983 1.48731 456.618 1.75814 457.139 2.29981C457.681 2.84147 457.952 3.48731 457.952 4.23731C457.952 4.98731 457.681 5.63314 457.139 6.17481C456.618 6.69564 455.983 6.95606 455.233 6.95606C454.483 6.95606 453.837 6.69564 453.295 6.17481ZM459.983 38.9561C459.462 38.4144 459.202 37.7686 459.202 37.0186C459.202 36.2686 459.462 35.6331 459.983 35.1123C460.524 34.5706 461.17 34.2998 461.92 34.2998C462.67 34.2998 463.316 34.5706 463.858 35.1123C464.399 35.6331 464.67 36.2686 464.67 37.0186C464.67 37.7686 464.399 38.4144 463.858 38.9561C463.316 39.4769 462.67 39.7373 461.92 39.7373C461.17 39.7373 460.524 39.4769 459.983 38.9561ZM466.702 45.5186C466.181 44.9769 465.92 44.3311 465.92 43.5811C465.92 42.8311 466.181 42.1852 466.702 41.6436C467.243 41.1019 467.889 40.8311 468.639 40.8311C469.389 40.8311 470.024 41.1019 470.545 41.6436C471.087 42.1852 471.358 42.8311 471.358 43.5811C471.358 44.3311 471.087 44.9769 470.545 45.5186C470.024 46.0394 469.389 46.2998 468.639 46.2998C467.889 46.2998 467.243 46.0394 466.702 45.5186ZM473.42 38.9561C472.899 38.4144 472.639 37.7686 472.639 37.0186C472.639 36.2686 472.899 35.6331 473.42 35.1123C473.962 34.5706 474.608 34.2998 475.358 34.2998C476.108 34.2998 476.743 34.5706 477.264 35.1123C477.806 35.6331 478.077 36.2686 478.077 37.0186C478.077 37.7686 477.806 38.4144 477.264 38.9561C476.743 39.4769 476.108 39.7373 475.358 39.7373C474.608 39.7373 473.962 39.4769 473.42 38.9561ZM480.139 32.3936C479.597 31.8519 479.327 31.2061 479.327 30.4561C479.327 29.7061 479.597 29.0706 480.139 28.5498C480.681 28.0081 481.327 27.7373 482.077 27.7373C482.827 27.7373 483.462 28.0081 483.983 28.5498C484.524 29.0706 484.795 29.7061 484.795 30.4561C484.795 31.2061 484.524 31.8519 483.983 32.3936C483.462 32.9144 482.827 33.1748 482.077 33.1748C481.327 33.1748 480.681 32.9144 480.139 32.3936ZM480.139 25.8311C479.597 25.2894 479.327 24.6436 479.327 23.8936C479.327 23.1436 479.597 22.5081 480.139 21.9873C480.681 21.4456 481.327 21.1748 482.077 21.1748C482.827 21.1748 483.462 21.4456 483.983 21.9873C484.524 22.5081 484.795 23.1436 484.795 23.8936C484.795 24.6436 484.524 25.2894 483.983 25.8311C483.462 26.3519 482.827 26.6123 482.077 26.6123C481.327 26.6123 480.681 26.3519 480.139 25.8311ZM480.139 19.2686C479.597 18.7269 479.327 18.0811 479.327 17.3311C479.327 16.5811 479.597 15.9456 480.139 15.4248C480.681 14.8831 481.327 14.6123 482.077 14.6123C482.827 14.6123 483.462 14.8831 483.983 15.4248C484.524 15.9456 484.795 16.5811 484.795 17.3311C484.795 18.0811 484.524 18.7269 483.983 19.2686C483.462 19.8102 482.827 20.0811 482.077 20.0811C481.327 20.0811 480.681 19.8102 480.139 19.2686ZM480.139 12.7373C479.597 12.1956 479.327 11.5498 479.327 10.7998C479.327 10.0498 479.597 9.40397 480.139 8.86231C480.681 8.32064 481.327 8.04981 482.077 8.04981C482.827 8.04981 483.462 8.32064 483.983 8.86231C484.524 9.40397 484.795 10.0498 484.795 10.7998C484.795 11.5498 484.524 12.1956 483.983 12.7373C483.462 13.2581 482.827 13.5186 482.077 13.5186C481.327 13.5186 480.681 13.2581 480.139 12.7373ZM480.139 6.17481C479.597 5.63314 479.327 4.98731 479.327 4.23731C479.327 3.48731 479.597 2.84147 480.139 2.29981C480.681 1.75814 481.327 1.48731 482.077 1.48731C482.827 1.48731 483.462 1.75814 483.983 2.29981C484.524 2.84147 484.795 3.48731 484.795 4.23731C484.795 4.98731 484.524 5.63314 483.983 6.17481C483.462 6.69564 482.827 6.95606 482.077 6.95606C481.327 6.95606 480.681 6.69564 480.139 6.17481Z" fill="#F52584"/>
<path d="M522.608 38.9561C522.066 38.4144 521.795 37.7686 521.795 37.0186C521.795 36.2686 522.066 35.6331 522.608 35.1123C523.149 34.5706 523.795 34.2998 524.545 34.2998C525.295 34.2998 525.931 34.5706 526.452 35.1123C526.993 35.6331 527.264 36.2686 527.264 37.0186C527.264 37.7686 526.993 38.4144 526.452 38.9561C525.931 39.4769 525.295 39.7373 524.545 39.7373C523.795 39.7373 523.149 39.4769 522.608 38.9561ZM522.608 19.2686C522.066 18.7269 521.795 18.0811 521.795 17.3311C521.795 16.5811 522.066 15.9456 522.608 15.4248C523.149 14.8831 523.795 14.6123 524.545 14.6123C525.295 14.6123 525.931 14.8831 526.452 15.4248C526.993 15.9456 527.264 16.5811 527.264 17.3311C527.264 18.0811 526.993 18.7269 526.452 19.2686C525.931 19.8102 525.295 20.0811 524.545 20.0811C523.795 20.0811 523.149 19.8102 522.608 19.2686ZM522.608 12.7373C522.066 12.1956 521.795 11.5498 521.795 10.7998C521.795 10.0498 522.066 9.40397 522.608 8.86231C523.149 8.32064 523.795 8.04981 524.545 8.04981C525.295 8.04981 525.931 8.32064 526.452 8.86231C526.993 9.40397 527.264 10.0498 527.264 10.7998C527.264 11.5498 526.993 12.1956 526.452 12.7373C525.931 13.2581 525.295 13.5186 524.545 13.5186C523.795 13.5186 523.149 13.2581 522.608 12.7373ZM529.295 45.5186C528.774 44.9769 528.514 44.3311 528.514 43.5811C528.514 42.8311 528.774 42.1852 529.295 41.6436C529.837 41.1019 530.483 40.8311 531.233 40.8311C531.983 40.8311 532.629 41.1019 533.17 41.6436C533.712 42.1852 533.983 42.8311 533.983 43.5811C533.983 44.3311 533.712 44.9769 533.17 45.5186C532.629 46.0394 531.983 46.2998 531.233 46.2998C530.483 46.2998 529.837 46.0394 529.295 45.5186ZM529.295 25.8311C528.774 25.2894 528.514 24.6436 528.514 23.8936C528.514 23.1436 528.774 22.5081 529.295 21.9873C529.837 21.4456 530.483 21.1748 531.233 21.1748C531.983 21.1748 532.629 21.4456 533.17 21.9873C533.712 22.5081 533.983 23.1436 533.983 23.8936C533.983 24.6436 533.712 25.2894 533.17 25.8311C532.629 26.3519 531.983 26.6123 531.233 26.6123C530.483 26.6123 529.837 26.3519 529.295 25.8311ZM529.295 6.17481C528.774 5.63314 528.514 4.98731 528.514 4.23731C528.514 3.48731 528.774 2.84147 529.295 2.29981C529.837 1.75814 530.483 1.48731 531.233 1.48731C531.983 1.48731 532.629 1.75814 533.17 2.29981C533.712 2.84147 533.983 3.48731 533.983 4.23731C533.983 4.98731 533.712 5.63314 533.17 6.17481C532.629 6.69564 531.983 6.95606 531.233 6.95606C530.483 6.95606 529.837 6.69564 529.295 6.17481ZM536.014 45.5186C535.493 44.9769 535.233 44.3311 535.233 43.5811C535.233 42.8311 535.493 42.1852 536.014 41.6436C536.556 41.1019 537.202 40.8311 537.952 40.8311C538.702 40.8311 539.337 41.1019 539.858 41.6436C540.399 42.1852 540.67 42.8311 540.67 43.5811C540.67 44.3311 540.399 44.9769 539.858 45.5186C539.337 46.0394 538.702 46.2998 537.952 46.2998C537.202 46.2998 536.556 46.0394 536.014 45.5186ZM536.014 25.8311C535.493 25.2894 535.233 24.6436 535.233 23.8936C535.233 23.1436 535.493 22.5081 536.014 21.9873C536.556 21.4456 537.202 21.1748 537.952 21.1748C538.702 21.1748 539.337 21.4456 539.858 21.9873C540.399 22.5081 540.67 23.1436 540.67 23.8936C540.67 24.6436 540.399 25.2894 539.858 25.8311C539.337 26.3519 538.702 26.6123 537.952 26.6123C537.202 26.6123 536.556 26.3519 536.014 25.8311ZM536.014 6.17481C535.493 5.63314 535.233 4.98731 535.233 4.23731C535.233 3.48731 535.493 2.84147 536.014 2.29981C536.556 1.75814 537.202 1.48731 537.952 1.48731C538.702 1.48731 539.337 1.75814 539.858 2.29981C540.399 2.84147 540.67 3.48731 540.67 4.23731C540.67 4.98731 540.399 5.63314 539.858 6.17481C539.337 6.69564 538.702 6.95606 537.952 6.95606C537.202 6.95606 536.556 6.69564 536.014 6.17481ZM542.733 45.5186C542.212 44.9769 541.952 44.3311 541.952 43.5811C541.952 42.8311 542.212 42.1852 542.733 41.6436C543.274 41.1019 543.92 40.8311 544.67 40.8311C545.42 40.8311 546.056 41.1019 546.577 41.6436C547.118 42.1852 547.389 42.8311 547.389 43.5811C547.389 44.3311 547.118 44.9769 546.577 45.5186C546.056 46.0394 545.42 46.2998 544.67 46.2998C543.92 46.2998 543.274 46.0394 542.733 45.5186ZM542.733 25.8311C542.212 25.2894 541.952 24.6436 541.952 23.8936C541.952 23.1436 542.212 22.5081 542.733 21.9873C543.274 21.4456 543.92 21.1748 544.67 21.1748C545.42 21.1748 546.056 21.4456 546.577 21.9873C547.118 22.5081 547.389 23.1436 547.389 23.8936C547.389 24.6436 547.118 25.2894 546.577 25.8311C546.056 26.3519 545.42 26.6123 544.67 26.6123C543.92 26.6123 543.274 26.3519 542.733 25.8311ZM542.733 6.17481C542.212 5.63314 541.952 4.98731 541.952 4.23731C541.952 3.48731 542.212 2.84147 542.733 2.29981C543.274 1.75814 543.92 1.48731 544.67 1.48731C545.42 1.48731 546.056 1.75814 546.577 2.29981C547.118 2.84147 547.389 3.48731 547.389 4.23731C547.389 4.98731 547.118 5.63314 546.577 6.17481C546.056 6.69564 545.42 6.95606 544.67 6.95606C543.92 6.95606 543.274 6.69564 542.733 6.17481ZM549.452 38.9561C548.91 38.4144 548.639 37.7686 548.639 37.0186C548.639 36.2686 548.91 35.6331 549.452 35.1123C549.993 34.5706 550.639 34.2998 551.389 34.2998C552.139 34.2998 552.774 34.5706 553.295 35.1123C553.837 35.6331 554.108 36.2686 554.108 37.0186C554.108 37.7686 553.837 38.4144 553.295 38.9561C552.774 39.4769 552.139 39.7373 551.389 39.7373C550.639 39.7373 549.993 39.4769 549.452 38.9561ZM549.452 32.3936C548.91 31.8519 548.639 31.2061 548.639 30.4561C548.639 29.7061 548.91 29.0706 549.452 28.5498C549.993 28.0081 550.639 27.7373 551.389 27.7373C552.139 27.7373 552.774 28.0081 553.295 28.5498C553.837 29.0706 554.108 29.7061 554.108 30.4561C554.108 31.2061 553.837 31.8519 553.295 32.3936C552.774 32.9144 552.139 33.1748 551.389 33.1748C550.639 33.1748 549.993 32.9144 549.452 32.3936ZM549.452 12.7373C548.91 12.1956 548.639 11.5498 548.639 10.7998C548.639 10.0498 548.91 9.40397 549.452 8.86231C549.993 8.32064 550.639 8.04981 551.389 8.04981C552.139 8.04981 552.774 8.32064 553.295 8.86231C553.837 9.40397 554.108 10.0498 554.108 10.7998C554.108 11.5498 553.837 12.1956 553.295 12.7373C552.774 13.2581 552.139 13.5186 551.389 13.5186C550.639 13.5186 549.993 13.2581 549.452 12.7373Z" fill="#F52584"/>
</g>
</g>
<defs>
<filter id="filter0_d_551_8647" x="-129.854" y="-129.2" width="813.961" height="307" filterUnits="userSpaceOnUse" color-interpolation-filters="sRGB">
<feFlood flood-opacity="0" result="BackgroundImageFix"/>
<feColorMatrix in="SourceAlpha" type="matrix" values="0 0 0 0 0 0 0 0 0 0 0 0 0 0 0 0 0 0 127 0" result="hardAlpha"/>
<feOffset/>
<feGaussianBlur stdDeviation="65"/>
<feComposite in2="hardAlpha" operator="out"/>
<feColorMatrix type="matrix" values="0 0 0 0 0.243137 0 0 0 0 0.811765 0 0 0 0 0.556863 0 0 0 0.25 0"/>
<feBlend mode="normal" in2="BackgroundImageFix" result="effect1_dropShadow_551_8647"/>
<feBlend mode="normal" in="SourceGraphic" in2="effect1_dropShadow_551_8647" result="shape"/>
</filter>
<clipPath id="clip0_551_8647">
<rect width="553.961" height="47" fill="white" transform="translate(0.146484 0.799805)"/>
</clipPath>
</defs>
</svg>
